<svg id="Layer_1" data-name="Layer 1" xmlns="http://www.w3.org/2000/svg" viewBox="0 0 90.33 48">
  <path d="M64.25,29.82,56,.5H37.33V8.36C34.92,3.65,29.06.82,20.89.82,11.29.82,2.73,5.33,2.27,15.91H14.55C14.94,12.65,17.3,11,20.5,11c2.67,0,5.35,1.1,5.35,4.11,0,4.31-4.52,4.7-8.1,4.7v8c3.26,0,8.49.45,8.49,5.09,0,2.68-2.08,5.36-6.07,5.36-4.25,0-6.53-2.55-6.53-6.79H.84c0,11.29,7.9,17,18.61,17,8.34,0,14.64-2.54,17.89-7.44v6.47H51.19V31.59c0-3.79-.52-10.13-1-14.25h.13L58.9,47.52H69.61l8.56-30.17h.13a144.16,144.16,0,0,0-1,15.82V47.54H91.16V.5H72.55ZM37.33,25.57a10.6,10.6,0,0,0-4.11-2.78A9.12,9.12,0,0,0,37.33,19Z" transform="translate(-0.84 -0.5)" style="fill: #00467f"/>
</svg>
