<svg width="67" height="67" viewBox="0 0 67 67" fill="none" xmlns="http://www.w3.org/2000/svg">
<path d="M9.228 20.6841C9.228 20.1318 8.78029 19.6841 8.228 19.6841H2C1.44772 19.6841 1 20.1318 1 20.6841V58.0521C1 62.0391 4.24097 65.2801 8.228 65.2801H45.596C46.1483 65.2801 46.596 64.8324 46.596 64.2801V58.0521C46.596 57.4998 46.1483 57.0521 45.596 57.0521H9.228V20.6841Z" stroke="black" stroke-width="2" stroke-linejoin="round"/>
<path d="M58.0521 1H20.6841C16.6939 1 13.4561 4.23786 13.4561 8.228V45.596C13.4561 49.5862 16.6939 52.824 20.6841 52.824H58.0521C62.0422 52.824 65.2801 49.5862 65.2801 45.596V8.228C65.2801 4.23786 62.0422 1 58.0521 1ZM31.0261 34.1985V19.6255C31.0261 18.0899 32.685 17.1272 34.0183 17.8891L46.7697 25.1755C48.1133 25.9433 48.1133 27.8807 46.7697 28.6485L34.0183 35.935C32.685 36.6969 31.0261 35.7341 31.0261 34.1985Z" stroke="black" stroke-width="2" stroke-linejoin="round"/>
</svg>
