<svg width="99" height="91" viewBox="0 0 99 91" fill="none" xmlns="http://www.w3.org/2000/svg">
<path d="M8.76179 1C4.47718 1 1.00368 4.4735 1.00368 8.75811V31.6137L1 40.4025C0.999612 40.9471 1.63617 41.2434 2.05278 40.8926L11.8003 32.38C12.1501 32.0856 12.5927 31.924 13.0499 31.924H73.0893C77.3739 31.924 80.8474 28.4505 80.8474 24.1659V8.75811C80.8474 4.4735 77.3739 1 73.0893 1H8.76179Z" stroke="black" stroke-width="2" stroke-miterlimit="10"/>
<path d="M96.9478 89.3819C97.3642 89.7326 98.0004 89.4364 98.0002 88.892L97.9967 80.6088H97.9981V57.4429C97.9981 53.1583 94.5246 49.6848 90.24 49.6848H26.3362C22.0516 49.6848 18.5781 53.1583 18.5781 57.4429V72.8507C18.5781 77.1353 22.0516 80.6088 26.3362 80.6088H86.186C86.6431 80.6088 87.0857 80.7704 87.4352 81.0648L96.9478 89.3819Z" stroke="black" stroke-width="2" stroke-miterlimit="10"/>
<path d="M44.5247 65.1667C44.5247 66.7567 43.2357 68.0457 41.6457 68.0457C40.0556 68.0457 38.7666 66.7567 38.7666 65.1667C38.7666 63.5766 40.0556 62.2876 41.6457 62.2876C43.2357 62.2876 44.5247 63.5766 44.5247 65.1667Z" stroke="black" stroke-width="2"/>
<path d="M60.0628 65.1667C60.0628 66.7567 58.7738 68.0457 57.1837 68.0457C55.5937 68.0457 54.3047 66.7567 54.3047 65.1667C54.3047 63.5766 55.5937 62.2876 57.1837 62.2876C58.7738 62.2876 60.0628 63.5766 60.0628 65.1667Z" stroke="black" stroke-width="2"/>
<path d="M75.6019 65.1667C75.6019 66.7567 74.3129 68.0457 72.7228 68.0457C71.1327 68.0457 69.8438 66.7567 69.8438 65.1667C69.8438 63.5766 71.1327 62.2876 72.7228 62.2876C74.3129 62.2876 75.6019 63.5766 75.6019 65.1667Z" stroke="black" stroke-width="2"/>
</svg>
