<svg width="169" height="77" viewBox="0 0 169 77" fill="none" xmlns="http://www.w3.org/2000/svg">
<g clip-path="url(#clip0_727_7312)">
<path fill-rule="evenodd" clip-rule="evenodd" d="M151.973 42.0867C151.857 42.4687 151.701 42.8669 151.508 43.2689C151.341 43.6111 151.146 43.9708 150.909 44.3702C150.705 44.7162 150.492 45.0572 150.286 45.3869C150.059 45.7466 149.846 46.0863 149.645 46.4335C149.322 46.986 148.923 47.714 148.69 48.4358C148.587 48.7245 148.516 49.0431 148.472 49.409C148.453 49.5508 148.451 49.6927 148.449 49.8308V49.8819C148.448 49.9503 148.448 50.0125 148.448 50.071C148.448 50.188 148.448 50.2988 148.435 50.4394C148.399 51.1848 148.201 51.9066 147.86 52.5276C147.571 53.0515 147.168 53.5219 146.697 53.8865C146.348 54.1565 145.976 54.3718 145.557 54.5448C145.285 54.6556 145.013 54.7414 144.769 54.7937C144.586 54.8323 144.485 54.8435 144.482 54.8447L144.424 54.8497L144.388 54.6543L144.438 54.6369C144.439 54.6369 144.529 54.6045 144.688 54.5286C144.925 54.4166 145.147 54.2922 145.373 54.1503C145.74 53.9114 146.036 53.6724 146.302 53.3999C146.649 53.054 146.942 52.6246 147.15 52.1592C147.258 51.9165 147.342 51.644 147.4 51.3491C147.462 51.0591 147.494 50.7393 147.492 50.4506C147.496 50.366 147.489 50.2577 147.484 50.1519C147.479 50.0797 147.476 50.0088 147.474 49.9478C147.469 49.7475 147.464 49.5434 147.484 49.338C147.514 48.9398 147.599 48.5292 147.738 48.1185C148.021 47.2785 148.474 46.5393 148.878 45.927C149.085 45.6184 149.298 45.3098 149.504 45.0124C149.748 44.6577 150.002 44.2918 150.238 43.9309C150.476 43.5626 150.673 43.2303 150.842 42.9179C151.03 42.562 151.185 42.2086 151.302 41.8714C151.556 41.1372 151.627 40.3992 151.509 39.7384C151.503 39.706 151.498 39.6737 151.493 39.6401C151.484 39.5866 151.474 39.5331 151.462 39.482L151.397 39.2356C151.381 39.161 151.351 39.0801 151.322 39.0029L151.006 38.1468C150.956 38.0099 150.904 37.8692 150.868 37.7249L150.729 37.2271C150.698 37.1201 150.676 37.0093 150.656 36.9011C150.646 36.8438 150.635 36.7866 150.623 36.7306C150.566 36.4804 150.538 36.2316 150.512 35.9901C150.505 35.9167 150.496 35.8445 150.488 35.7736C150.45 35.1327 150.474 34.559 150.561 34.0662C150.643 33.6145 150.771 33.1764 150.931 32.7994C151.045 32.5468 151.157 32.3452 151.249 32.1971C151.255 32.1921 151.261 32.1871 151.269 32.1821C151.318 32.2095 151.373 32.2269 151.432 32.2319C151.454 32.2344 151.477 32.2344 151.498 32.2332C151.413 32.3812 151.299 32.6065 151.185 32.9039C151.053 33.2735 150.956 33.6817 150.899 34.1135C150.842 34.5764 150.846 35.1153 150.912 35.7151C150.924 35.7836 150.935 35.8557 150.946 35.9279C150.982 36.1507 151.019 36.3796 151.085 36.6074C151.099 36.6634 151.113 36.7181 151.127 36.7754C151.15 36.8724 151.174 36.9732 151.208 37.0691L151.367 37.5407C151.403 37.6627 151.452 37.7784 151.504 37.8991L151.866 38.7677C151.898 38.8461 151.932 38.9258 151.958 39.0204L152.046 39.3041C152.065 39.37 152.079 39.4348 152.093 39.5007C152.1 39.5331 152.106 39.5654 152.114 39.599C152.282 40.3556 152.232 41.2392 151.973 42.0867Z" fill="#1268A9"/>
<path fill-rule="evenodd" clip-rule="evenodd" d="M151.26 32.1784C151.256 32.1846 151.253 32.1909 151.249 32.1971C151.116 32.2929 150.981 32.3974 150.848 32.5082C150.547 32.7608 150.283 33.0159 150.042 33.2872C149.704 33.673 149.434 34.0625 149.217 34.4769C148.934 35.0344 148.767 35.5608 148.705 36.0847C148.627 36.7057 148.663 37.3454 148.811 37.9352L148.837 38.0348C148.867 38.1555 148.899 38.2824 148.943 38.4019L149.022 38.6383C149.039 38.6869 149.06 38.7354 149.08 38.7839C149.091 38.8113 149.103 38.8387 149.115 38.8673L149.209 39.0988L149.663 40.0309C149.69 40.0869 149.713 40.1454 149.737 40.2038L149.81 40.3806C149.834 40.4403 149.859 40.4988 149.881 40.5585L149.971 40.8298C150.018 40.9567 150.05 41.0949 150.083 41.228C150.095 41.2815 150.109 41.3363 150.123 41.391C150.137 41.457 150.147 41.523 150.157 41.5889C150.162 41.6213 150.167 41.6549 150.172 41.6872C150.187 41.7681 150.203 41.8764 150.207 41.9909C150.247 42.3941 150.215 42.8234 150.113 43.2303C150.013 43.6261 149.839 44.0243 149.607 44.3802C149.142 45.1007 148.52 45.5873 147.973 45.9694C147.478 46.3029 146.997 46.5717 146.531 46.8318L146.287 46.9686C146.046 47.1068 145.792 47.2561 145.57 47.4166C145.443 47.5075 145.353 47.5784 145.277 47.6469C145.248 47.6718 145.226 47.6954 145.203 47.719C145.187 47.7352 145.172 47.7514 145.155 47.7676L145.141 47.7825L145.14 47.7813L145.139 47.7825L145.109 47.8211H145.107L145.041 47.9045C144.908 48.075 144.808 48.2691 144.758 48.4495C144.705 48.6225 144.692 48.8104 144.714 49.012C144.761 49.4102 144.938 49.7413 145.066 49.9566C145.213 50.1955 145.354 50.3722 145.473 50.5141C145.575 50.6335 145.636 50.692 145.636 50.6933L145.675 50.7294L145.563 50.8936L145.514 50.8675C145.511 50.865 145.431 50.8214 145.292 50.7269C145.088 50.585 144.903 50.4257 144.728 50.2378C144.515 50.0051 144.251 49.6728 144.107 49.1651C143.944 48.6213 144.061 47.9318 144.407 47.4092L144.54 47.215C144.557 47.1951 144.574 47.174 144.59 47.1541C144.626 47.108 144.663 47.0607 144.703 47.0184C144.801 46.9114 144.91 46.8069 145.056 46.6787C145.314 46.4646 145.59 46.2767 145.829 46.1162C146.081 45.9494 146.343 45.7864 146.597 45.6296C146.877 45.4554 147.167 45.275 147.447 45.0858C147.965 44.7336 148.494 44.3391 148.869 43.8314C149.245 43.3299 149.436 42.7039 149.406 42.068C149.407 41.9772 149.397 41.8901 149.388 41.8241C149.385 41.793 149.381 41.7606 149.378 41.7295C149.372 41.6785 149.367 41.6275 149.358 41.5777C149.347 41.5254 149.337 41.4719 149.326 41.4184C149.306 41.3089 149.284 41.1969 149.25 41.0899L149.179 40.8422C149.164 40.795 149.147 40.7477 149.13 40.6991C149.118 40.6693 149.108 40.6394 149.097 40.6083C149.087 40.5797 149.076 40.5498 149.066 40.5212C149.049 40.4726 149.032 40.4241 149.013 40.3743L148.591 39.3987L148.497 39.1398C148.487 39.1087 148.476 39.0801 148.465 39.0502C148.445 38.9942 148.425 38.9395 148.408 38.8822L148.334 38.6222C148.29 38.4828 148.26 38.3359 148.23 38.1941L148.21 38.097C148.069 37.3976 148.062 36.6758 148.187 36.0113C148.288 35.4351 148.511 34.8465 148.848 34.2629C149.107 33.831 149.417 33.4316 149.799 33.0433C150.073 32.7658 150.363 32.5182 150.685 32.283C150.838 32.1722 150.975 32.0814 151.091 32.0079C151.129 32.0789 151.188 32.1386 151.26 32.1784Z" fill="#1268A9"/>
<mask id="mask0_727_7312" style="mask-type:alpha" maskUnits="userSpaceOnUse" x="148" y="7" width="21" height="25">
<path d="M148.711 7.90869H168.283V31.9599H148.711V7.90869Z" fill="white"/>
</mask>
<g mask="url(#mask0_727_7312)">
<path fill-rule="evenodd" clip-rule="evenodd" d="M167.782 22.5153C167.668 22.6012 167.537 22.6671 167.409 22.7356C166.106 23.4275 164.796 24.1095 163.499 24.8151C163.021 25.0739 162.573 25.3863 162.111 25.675C160.144 26.9057 158.176 28.1365 156.209 29.3672C154.895 30.1898 153.581 31.0136 152.263 31.8312C152.162 31.8947 152.039 31.9308 151.921 31.9557C151.906 31.9594 151.891 31.9607 151.877 31.9594C151.877 31.9594 151.877 31.9594 151.877 31.9582C151.892 31.9221 151.902 31.8823 151.906 31.8399C151.919 31.6993 151.865 31.5687 151.77 31.4803C151.77 31.4791 151.771 31.4766 151.771 31.4753C151.95 30.8942 152.133 30.3155 152.326 29.7406C152.927 27.9511 153.522 26.1578 154.143 24.3745C154.733 22.6783 155.374 20.9996 156.092 19.3519C156.615 18.1511 157.145 16.9527 157.67 15.753C157.786 15.4879 157.961 15.2963 158.255 15.2341C158.272 15.2303 158.288 15.2254 158.306 15.2241C158.338 15.2229 158.371 15.2241 158.402 15.2241C158.587 15.2142 158.745 15.2926 158.896 15.3884C160.006 16.0915 161.121 16.7871 162.223 17.5015C163.493 18.3253 164.7 19.2362 165.889 20.1695C166.504 20.6524 167.113 21.1402 167.723 21.628C167.78 21.6741 167.835 21.7276 167.879 21.7861C168.066 22.0337 168.031 22.3274 167.782 22.5153Z" fill="#1268A9"/>
<path fill-rule="evenodd" clip-rule="evenodd" d="M157.147 14.1197C156.991 14.1255 156.846 14.0733 156.698 14.0357C155.91 13.8343 155.124 13.6234 154.331 13.4364C153.78 13.3063 153.224 13.2012 152.666 13.1005C152.229 13.0216 151.789 12.9621 151.349 12.9018C150.88 12.8374 150.409 12.7799 149.938 12.7237C149.632 12.6871 149.326 12.6607 149.02 12.6236C148.94 12.614 148.859 12.5906 148.787 12.5579C148.695 12.5166 148.688 12.4421 148.759 12.3703C148.849 12.279 148.968 12.2304 149.083 12.1825C150.013 11.7977 150.941 11.4076 151.876 11.0322C153.383 10.4266 154.896 9.83569 156.448 9.35086C157.455 9.03651 158.464 8.73498 159.474 8.4347C160.047 8.26446 160.624 8.10778 161.199 7.94613C161.301 7.91738 161.406 7.89673 161.514 7.91651C161.639 7.93929 161.699 8.02329 161.678 8.14922C161.66 8.25513 161.607 8.34535 161.549 8.43196C161.312 8.77879 161.075 9.12462 160.838 9.47145C160.168 10.4565 159.508 11.4492 158.873 12.458C158.647 12.8176 158.42 13.1774 158.196 13.5378C157.952 13.9264 157.59 14.0964 157.147 14.1197Z" fill="#1268A9"/>
<path fill-rule="evenodd" clip-rule="evenodd" d="M158.581 14.2967C158.584 14.1197 158.624 13.9745 158.703 13.8427C159.317 12.8199 159.927 11.7948 160.548 10.7766C160.977 10.073 161.421 9.37899 161.862 8.68173C161.9 8.61938 161.946 8.55928 161.997 8.50701C162.2 8.30267 162.473 8.313 162.644 8.54559C162.749 8.68758 162.829 8.84824 162.909 9.00591C163.371 9.90726 163.833 10.8081 164.287 11.7132C164.879 12.8957 165.441 14.0931 165.955 15.3119C166.462 16.5151 166.964 17.7209 167.46 18.9285C167.723 19.565 167.972 20.207 168.223 20.8483C168.257 20.9332 168.276 21.0267 168.283 21.1178C168.292 21.2385 168.223 21.2875 168.111 21.2395C168.024 21.2027 167.942 21.1513 167.867 21.0934C167.398 20.7293 166.934 20.359 166.464 19.9955C165.327 19.1157 164.176 18.254 162.982 17.4544C161.844 16.6933 160.671 15.9897 159.488 15.3009C159.33 15.2088 159.171 15.1187 159.014 15.0242C158.733 14.8542 158.592 14.6013 158.581 14.2967Z" fill="#1268A9"/>
</g>
<path fill-rule="evenodd" clip-rule="evenodd" d="M157.186 15.473C156.908 16.1276 156.621 16.7772 156.329 17.4255C154.907 20.5877 153.726 23.8406 152.679 27.1446C152.234 28.5534 151.8 29.9658 151.36 31.377C151.196 31.4206 151.067 31.5587 151.042 31.7354C151.023 31.7155 151.009 31.6918 151.004 31.6719C150.951 31.4517 150.905 31.2277 150.869 31.0037C150.656 29.7182 150.446 28.4326 150.239 27.1459C150.084 26.1727 149.932 25.1996 149.785 24.2252C149.624 23.1624 149.465 22.0984 149.316 21.0332C149.178 20.0476 149.052 19.0595 148.922 18.0726C148.808 17.2053 148.695 16.3391 148.584 15.4718C148.507 14.867 148.427 14.2622 148.36 13.6574C148.315 13.2579 148.605 12.9717 149.099 12.9741C149.438 13.0227 149.842 13.0787 150.245 13.1397C151.125 13.2703 152.011 13.3761 152.884 13.5441C153.792 13.7208 154.69 13.9548 155.591 14.1713C155.967 14.2622 156.339 14.3654 156.71 14.4737C157.178 14.6106 157.377 15.0213 157.186 15.473Z" fill="#1268A9"/>
<path fill-rule="evenodd" clip-rule="evenodd" d="M8.12988 38.1944C8.12988 37.4396 8.26329 36.6934 8.53059 35.9558C8.79765 35.2182 9.18393 34.5592 9.68917 33.9783C10.1944 33.3976 10.8129 32.9273 11.5446 32.5671C12.2764 32.2073 13.1126 32.027 14.0534 32.027C15.1568 32.027 16.112 32.2769 16.9194 32.7761C17.7265 33.2758 18.3219 33.926 18.7052 34.7275L16.8584 35.9992C16.719 35.6508 16.5388 35.3576 16.3183 35.1194C16.0976 34.8816 15.8566 34.6926 15.5953 34.5532C15.334 34.4138 15.0639 34.3124 14.7852 34.2483C14.5064 34.1846 14.2391 34.1525 13.9837 34.1525C13.4145 34.1525 12.915 34.2744 12.4854 34.5184C12.0556 34.7623 11.6985 35.079 11.414 35.468C11.1292 35.8573 10.9143 36.2985 10.7693 36.792C10.6239 37.2857 10.5516 37.7764 10.5516 38.2641C10.5516 38.8102 10.6357 39.3356 10.8042 39.8408C10.9724 40.3461 11.2106 40.7904 11.5185 41.1736C11.8261 41.5569 12.1949 41.8648 12.6248 42.097C13.0544 42.3295 13.5248 42.4455 14.036 42.4455C14.3031 42.4455 14.5761 42.4107 14.8549 42.3409C15.1336 42.2714 15.4037 42.161 15.665 42.0099C15.9263 41.8591 16.1673 41.6646 16.388 41.4264C16.6085 41.1883 16.7887 40.9009 16.9281 40.5639L18.8968 41.6964C18.7109 42.161 18.4409 42.5704 18.0867 42.9247C17.7323 43.279 17.3288 43.578 16.8758 43.8219C16.4229 44.0659 15.9465 44.2518 15.4472 44.3793C14.9477 44.507 14.4541 44.571 13.9663 44.571C13.1067 44.571 12.3199 44.3853 11.6056 44.0136C10.8913 43.6419 10.2756 43.1572 9.75886 42.5587C9.24192 41.9608 8.84121 41.2813 8.55673 40.5203C8.272 39.7597 8.12988 38.9845 8.12988 38.1944Z" fill="#1268A9"/>
<path fill-rule="evenodd" clip-rule="evenodd" d="M19.9766 31.7482H22.311V41.4349C22.311 42.1435 22.6305 42.4977 23.2694 42.4977C23.397 42.4977 23.545 42.4745 23.7136 42.428C23.8818 42.3817 24.0417 42.3294 24.1927 42.2713L24.5063 44.1354C24.1927 44.2864 23.8269 44.4028 23.4087 44.4838C22.9906 44.565 22.613 44.6058 22.2763 44.6058C21.5446 44.6058 20.9782 44.4115 20.5776 44.0221C20.1769 43.6331 19.9766 43.0786 19.9766 42.3583V31.7482Z" fill="#1268A9"/>
<path fill-rule="evenodd" clip-rule="evenodd" d="M26.9979 39.9193C26.9979 40.3261 27.0589 40.6947 27.1807 41.0256C27.3028 41.3566 27.4709 41.6442 27.686 41.8881C27.9007 42.132 28.1535 42.3208 28.4439 42.4542C28.734 42.588 29.0476 42.6547 29.3846 42.6547C29.7214 42.6547 30.035 42.588 30.3255 42.4542C30.6156 42.3208 30.8682 42.132 31.0834 41.8881C31.2981 41.6442 31.4667 41.354 31.5885 41.017C31.7106 40.6801 31.7715 40.3085 31.7715 39.902C31.7715 39.5072 31.7106 39.1412 31.5885 38.8042C31.4667 38.4675 31.2981 38.177 31.0834 37.9331C30.8682 37.6892 30.6156 37.5007 30.3255 37.3669C30.035 37.2335 29.7214 37.1666 29.3846 37.1666C29.0476 37.1666 28.734 37.2364 28.4439 37.3756C28.1535 37.515 27.9007 37.7066 27.686 37.9506C27.4709 38.1945 27.3028 38.4849 27.1807 38.8217C27.0589 39.1587 26.9979 39.5245 26.9979 39.9193ZM29.3846 44.6408C28.6413 44.6408 27.9734 44.5128 27.3812 44.2575C26.7887 44.0022 26.2862 43.6565 25.874 43.2209C25.4616 42.7853 25.145 42.283 24.9245 41.7138C24.7038 41.1449 24.5935 40.5465 24.5935 39.9193C24.5935 39.2806 24.7038 38.6766 24.9245 38.1075C25.145 37.5384 25.4616 37.0359 25.874 36.6003C26.2862 36.1648 26.7887 35.8193 27.3812 35.5637C27.9734 35.3083 28.6413 35.1804 29.3846 35.1804C30.1278 35.1804 30.793 35.3083 31.3796 35.5637C31.9658 35.8193 32.4654 36.1648 32.8779 36.6003C33.2899 37.0359 33.6065 37.5384 33.8273 38.1075C34.0478 38.6766 34.1584 39.2806 34.1584 39.9193C34.1584 40.5465 34.0478 41.1449 33.8273 41.7138C33.6065 42.283 33.293 42.7853 32.8865 43.2209C32.4798 43.6565 31.9807 44.0022 31.3882 44.2575C30.7958 44.5128 30.1278 44.6408 29.3846 44.6408Z" fill="#1268A9"/>
<path fill-rule="evenodd" clip-rule="evenodd" d="M38.1825 44.6406C37.2417 44.6406 36.5274 44.3386 36.0396 43.7345C35.5518 43.1309 35.3079 42.2362 35.3079 41.0515V35.337H37.6424V40.5463C37.6424 41.9518 38.1476 42.6545 39.158 42.6545C39.6226 42.6545 40.0667 42.518 40.4908 42.2451C40.9148 41.9722 41.2603 41.5568 41.5275 40.9993V35.337H43.8622V41.7834C43.8622 42.0273 43.9083 42.2014 44.0014 42.3059C44.0943 42.4106 44.2569 42.4688 44.4894 42.4801V44.4663C44.2453 44.5126 44.0304 44.5447 43.8448 44.5621C43.6587 44.5795 43.4963 44.5884 43.3569 44.5884C42.9387 44.5884 42.6105 44.4924 42.3724 44.3008C42.1343 44.1091 41.9863 43.8451 41.9283 43.5081L41.876 42.759C41.4579 43.3862 40.9321 43.8565 40.2992 44.1701C39.666 44.4837 38.9604 44.6406 38.1825 44.6406Z" fill="#1268A9"/>
<path fill-rule="evenodd" clip-rule="evenodd" d="M50.3256 42.6546C50.5461 42.6546 50.7725 42.6169 51.0051 42.5414C51.2373 42.4658 51.452 42.3583 51.6497 42.219C51.8471 42.0797 52.0269 41.917 52.1898 41.7311C52.3523 41.5456 52.4743 41.3422 52.5557 41.1213V38.9435C52.3581 38.4326 52.0357 38.0088 51.5887 37.6718C51.1415 37.3351 50.6741 37.1665 50.1861 37.1665C49.8378 37.1665 49.5155 37.2423 49.2193 37.393C48.9231 37.544 48.6705 37.7502 48.4615 38.0115C48.2523 38.2729 48.0896 38.572 47.9736 38.9087C47.8574 39.2457 47.7994 39.5941 47.7994 39.9542C47.7994 40.3374 47.8631 40.6917 47.9911 41.0169C48.1187 41.3422 48.2959 41.6266 48.5224 41.8705C48.7489 42.1144 49.016 42.306 49.3239 42.4454C49.6314 42.5848 49.9655 42.6546 50.3256 42.6546ZM49.7159 44.6407C49.0887 44.6407 48.5107 44.5187 47.9823 44.2747C47.4536 44.0308 46.998 43.6941 46.6147 43.2643C46.2314 42.8347 45.9322 42.3322 45.7175 41.7574C45.5024 41.1824 45.395 40.5638 45.395 39.9019C45.395 39.2397 45.4967 38.6242 45.7 38.0551C45.9031 37.4861 46.1849 36.9867 46.545 36.5568C46.9048 36.1272 47.3346 35.7902 47.8343 35.5463C48.3335 35.3024 48.8795 35.1803 49.4719 35.1803C50.134 35.1803 50.7351 35.3432 51.275 35.6682C51.8152 35.9935 52.2361 36.4174 52.5383 36.94V31.7482H54.8728V41.7835C54.8728 42.0274 54.9191 42.2015 55.0122 42.306C55.105 42.4107 55.2676 42.4689 55.5 42.4803V44.4664C55.0585 44.5477 54.6869 44.5885 54.385 44.5885C53.9552 44.5766 53.6212 44.4778 53.3832 44.2922C53.145 44.1066 52.9968 43.8452 52.939 43.5082L52.8867 42.881C52.5497 43.4619 52.0967 43.9002 51.5278 44.1963C50.9586 44.4925 50.3545 44.6407 49.7159 44.6407Z" fill="#1268A9"/>
<path fill-rule="evenodd" clip-rule="evenodd" d="M64.839 33.7169C64.5253 33.7169 64.232 33.778 63.9591 33.8998C63.686 34.0219 63.4452 34.1903 63.2362 34.4052C63.027 34.6201 62.8615 34.8699 62.7396 35.1542C62.6176 35.4389 62.5567 35.738 62.5567 36.0515C62.5567 36.3652 62.6176 36.6586 62.7396 36.9313C62.8615 37.2044 63.0241 37.4452 63.2275 37.6543C63.4304 37.8635 63.6717 38.0261 63.9504 38.1422C64.2291 38.2585 64.5253 38.3163 64.839 38.3163C65.1525 38.3163 65.4487 38.2585 65.7274 38.1422C66.0063 38.0261 66.2471 37.8635 66.4506 37.6543C66.6537 37.4452 66.8163 37.2044 66.9384 36.9313C67.0602 36.6586 67.1213 36.3652 67.1213 36.0515C67.1213 35.738 67.0602 35.4389 66.9384 35.1542C66.8163 34.8699 66.6508 34.623 66.4419 34.4139C66.2328 34.2047 65.9915 34.0366 65.7187 33.9085C65.4458 33.781 65.1525 33.7169 64.839 33.7169ZM60.3267 36.0515C60.3267 35.4478 60.4426 34.8842 60.6751 34.3615C60.9072 33.839 61.2239 33.3832 61.6246 32.994C62.0252 32.605 62.5015 32.3001 63.0531 32.0792C63.6048 31.8588 64.2 31.7482 64.839 31.7482C65.5358 31.7482 66.1658 31.8761 66.7292 32.1315C67.2926 32.3872 67.7715 32.7587 68.1667 33.2465C68.5614 33.7343 68.8662 34.3296 69.0813 35.0324C69.296 35.7351 69.4035 36.5336 69.4035 37.4279C69.4035 38.5545 69.2903 39.5506 69.0639 40.4157C68.8374 41.2812 68.5177 42.007 68.1057 42.5935C67.6931 43.1799 67.1909 43.6243 66.5985 43.9263C66.0063 44.2282 65.3441 44.3793 64.6124 44.3793C63.8342 44.3793 63.1141 44.2109 62.452 43.8742C61.7901 43.5372 61.2325 43.0552 60.7796 42.428L62.1211 40.9646C62.3998 41.4061 62.7598 41.7485 63.2013 41.9924C63.6426 42.2363 64.1247 42.3584 64.6474 42.3584C65.4254 42.3584 66.0438 42.0504 66.5028 41.435C66.9614 40.8195 67.2023 39.9484 67.2257 38.8217C66.9933 39.2397 66.6508 39.5707 66.1979 39.8147C65.7448 40.0586 65.2223 40.1806 64.6298 40.1806C64.0142 40.1806 63.4452 40.0761 62.9224 39.8669C62.3998 39.658 61.9469 39.3678 61.5635 38.9958C61.1802 38.6243 60.8782 38.1858 60.6576 37.6806C60.4369 37.1752 60.3267 36.6325 60.3267 36.0515Z" fill="#1268A9"/>
<path fill-rule="evenodd" clip-rule="evenodd" d="M82.8528 34.1525C82.0514 33.2582 80.919 32.8109 79.4555 32.8109C78.2474 32.8109 77.3676 33.0404 76.816 33.4991C76.2643 33.9582 75.9884 34.5767 75.9884 35.3547C75.9884 35.7496 76.0582 36.0807 76.1976 36.3477C76.3369 36.615 76.5547 36.8385 76.8509 37.0185C77.1471 37.1986 77.5243 37.3555 77.9833 37.4888C78.442 37.6225 78.9851 37.7531 79.6123 37.8808C80.2858 38.0202 80.8899 38.1744 81.4242 38.3425C81.9583 38.5111 82.4143 38.723 82.7917 38.9785C83.1692 39.234 83.4596 39.5476 83.6628 39.9192C83.8661 40.2912 83.9679 40.7497 83.9679 41.2956C83.9679 41.8416 83.8602 42.3179 83.6456 42.7242C83.4305 43.131 83.1285 43.4706 82.7395 43.7435C82.3503 44.0164 81.8859 44.2225 81.3458 44.3619C80.8056 44.5014 80.2047 44.5709 79.5426 44.5709C77.6145 44.5709 75.9825 43.9556 74.647 42.7242L75.1172 42.0099C75.64 42.5561 76.2787 42.9885 77.0338 43.308C77.7887 43.6274 78.6367 43.7869 79.5775 43.7869C80.6576 43.7869 81.5026 43.5896 82.1123 43.1947C82.7222 42.8 83.0271 42.2015 83.0271 41.4002C83.0271 40.9937 82.9487 40.6483 82.7917 40.3636C82.6351 40.079 82.3939 39.8321 82.0688 39.623C81.7435 39.4141 81.3397 39.234 80.858 39.0831C80.3758 38.9322 79.8097 38.7869 79.1593 38.6475C78.4973 38.508 77.9136 38.3599 77.4084 38.2031C76.9031 38.0463 76.4762 37.8491 76.1279 37.6108C75.7794 37.3728 75.5181 37.0855 75.3439 36.7485C75.1695 36.4117 75.0825 35.9878 75.0825 35.4765C75.0825 34.9192 75.1898 34.4256 75.4048 33.9958C75.6196 33.5661 75.9188 33.2031 76.3021 32.9069C76.6854 32.6107 77.1441 32.3871 77.6784 32.236C78.2126 32.0852 78.8048 32.0096 79.4555 32.0096C80.2569 32.0096 80.9712 32.1289 81.5984 32.3667C82.2256 32.6049 82.7946 32.9677 83.3058 33.4556L82.8528 34.1525Z" fill="#1268A9"/>
<path fill-rule="evenodd" clip-rule="evenodd" d="M85.9537 39.9888C85.9537 40.5233 86.0466 41.0255 86.2325 41.4959C86.4181 41.9663 86.6708 42.3757 86.9903 42.7241C87.3097 43.0726 87.6842 43.3487 88.1141 43.5518C88.5437 43.755 89.0026 43.8566 89.4904 43.8566C89.9783 43.8566 90.437 43.755 90.8668 43.5518C91.2964 43.3487 91.6709 43.0669 91.9905 42.7068C92.3098 42.3468 92.5655 41.9314 92.7571 41.461C92.9489 40.9907 93.0446 40.4828 93.0446 39.9366C93.0446 39.4026 92.9489 38.9 92.7571 38.4297C92.5655 37.9592 92.3098 37.5471 91.9905 37.1926C91.6709 36.8384 91.2964 36.5568 90.8668 36.3476C90.437 36.1385 89.9783 36.0341 89.4904 36.0341C89.0141 36.0341 88.5611 36.1385 88.1315 36.3476C87.7017 36.5568 87.3241 36.8415 86.999 37.2013C86.6738 37.5614 86.4181 37.9827 86.2325 38.4644C86.0466 38.9466 85.9537 39.4549 85.9537 39.9888ZM89.4904 44.6407C88.8515 44.6407 88.2622 44.5156 87.7222 44.266C87.182 44.0164 86.7143 43.6768 86.3196 43.2468C85.9246 42.8172 85.6167 42.3178 85.3962 41.7485C85.1754 41.1795 85.0652 40.5813 85.0652 39.9541C85.0652 39.3155 85.1784 38.7113 85.4049 38.1421C85.6314 37.5733 85.945 37.0736 86.3457 36.6438C86.7464 36.2143 87.2138 35.8745 87.7482 35.6246C88.2822 35.3751 88.8632 35.2501 89.4904 35.2501C90.1178 35.2501 90.7013 35.3751 91.2414 35.6246C91.7815 35.8745 92.2519 36.2143 92.6526 36.6438C93.0533 37.0736 93.3669 37.5733 93.5934 38.1421C93.82 38.7113 93.9331 39.3155 93.9331 39.9541C93.9331 40.5813 93.82 41.1795 93.5934 41.7485C93.3669 42.3178 93.056 42.8172 92.6613 43.2468C92.2663 43.6768 91.7959 44.0164 91.2501 44.266C90.7039 44.5156 90.1178 44.6407 89.4904 44.6407Z" fill="#1268A9"/>
<path fill-rule="evenodd" clip-rule="evenodd" d="M96.0761 44.4665V37.1842H94.8044V36.4699H96.0761V35.1109C96.0761 33.9959 96.3054 33.1277 96.7644 32.5062C97.223 31.8851 97.8533 31.5742 98.6546 31.5742C98.9914 31.5742 99.3224 31.6265 99.6478 31.7309C99.9727 31.8354 100.24 31.9748 100.449 32.149L100.136 32.7762C99.9727 32.6485 99.7725 32.5441 99.5344 32.4626C99.2963 32.3815 99.0494 32.3407 98.794 32.3407C98.2018 32.3407 97.7457 32.5759 97.4264 33.0464C97.1069 33.5167 96.9473 34.1991 96.9473 35.0934V36.4699H99.5257V37.1842H96.9473V44.4665H96.0761Z" fill="#1268A9"/>
<path fill-rule="evenodd" clip-rule="evenodd" d="M105.257 44.0308C105.211 44.0543 105.133 44.0978 105.022 44.1615C104.912 44.2256 104.772 44.2864 104.604 44.3444C104.435 44.4028 104.247 44.4549 104.038 44.5013C103.829 44.5476 103.602 44.5709 103.358 44.5709C103.115 44.5709 102.885 44.5361 102.67 44.4664C102.455 44.3968 102.267 44.2922 102.104 44.1529C101.941 44.0135 101.81 43.8451 101.712 43.6475C101.613 43.4502 101.564 43.2179 101.564 42.9508V36.1213H100.292V35.4068H101.564V32.3058H102.435V35.4068H104.561V36.1213H102.435V42.7416C102.435 43.0786 102.551 43.3312 102.784 43.4996C103.016 43.6679 103.283 43.7521 103.585 43.7521C103.945 43.7521 104.256 43.6911 104.517 43.5691C104.778 43.4472 104.938 43.3688 104.996 43.3341L105.257 44.0308Z" fill="#1268A9"/>
<path fill-rule="evenodd" clip-rule="evenodd" d="M117.923 35.4071H118.794L114.874 44.4667H114.142L112.104 39.6755L110.066 44.4667H109.317L105.414 35.4071H106.268L109.735 43.5084L111.634 39.0484L110.083 35.4245H110.85L112.104 38.4211L113.341 35.4245H114.108L112.574 39.0484L114.473 43.5084L117.923 35.4071Z" fill="#1268A9"/>
<path fill-rule="evenodd" clip-rule="evenodd" d="M122.349 43.9438C123.022 43.9438 123.644 43.8191 124.213 43.5692C124.782 43.3196 125.207 42.9799 125.485 42.55C125.682 42.3179 125.782 42.0856 125.782 41.8531V40.2503C124.898 39.9252 123.992 39.7625 123.063 39.7625C122.157 39.7625 121.426 39.9485 120.868 40.32C120.311 40.6918 120.032 41.1797 120.032 41.7836C120.032 42.0856 120.09 42.3702 120.206 42.6371C120.322 42.9046 120.485 43.1337 120.694 43.3253C120.903 43.517 121.149 43.668 121.434 43.7783C121.719 43.8889 122.024 43.9438 122.349 43.9438ZM122.175 44.6408C121.757 44.6408 121.364 44.5681 120.999 44.423C120.633 44.2779 120.313 44.0806 120.041 43.8306C119.767 43.5809 119.555 43.2848 119.404 42.942C119.254 42.5996 119.178 42.2307 119.178 41.8358C119.178 41.4411 119.271 41.0808 119.457 40.7555C119.642 40.4306 119.904 40.1488 120.241 39.9106C120.577 39.6728 120.975 39.4868 121.434 39.3531C121.893 39.2196 122.401 39.1527 122.959 39.1527C123.446 39.1527 123.94 39.1964 124.439 39.2834C124.939 39.3705 125.386 39.4897 125.782 39.6405V38.752C125.782 37.8926 125.538 37.2102 125.05 36.7049C124.561 36.1998 123.9 35.947 123.063 35.947C122.61 35.947 122.137 36.0401 121.643 36.2259C121.149 36.4118 120.653 36.6787 120.154 37.0272L119.805 36.4348C120.978 35.6452 122.082 35.2502 123.116 35.2502C124.207 35.2502 125.07 35.5668 125.703 36.1998C126.335 36.8328 126.653 37.7067 126.653 38.8217V43.2469C126.653 43.5374 126.775 43.6825 127.018 43.6825V44.4665C126.96 44.4779 126.905 44.4839 126.853 44.4839C126.801 44.4839 126.751 44.4839 126.705 44.4839C126.496 44.4839 126.304 44.4116 126.13 44.2661C125.956 44.121 125.869 43.9324 125.869 43.6999V42.9509C125.45 43.4968 124.919 43.9151 124.274 44.2053C123.629 44.4953 122.93 44.6408 122.175 44.6408Z" fill="#1268A9"/>
<path fill-rule="evenodd" clip-rule="evenodd" d="M133.307 36.1909C132.483 36.2144 131.769 36.4552 131.164 36.9139C130.56 37.3729 130.136 38.0028 129.892 38.8042V44.4665H129.021V35.4069H129.84V37.637C130.153 36.9984 130.569 36.4784 131.086 36.0777C131.603 35.677 132.157 35.4479 132.749 35.3895C132.866 35.3895 132.971 35.3868 133.063 35.3809C133.156 35.3752 133.237 35.3721 133.307 35.3721V36.1909Z" fill="#1268A9"/>
<path fill-rule="evenodd" clip-rule="evenodd" d="M142.087 39.5881C142.052 39.054 141.933 38.5662 141.73 38.1247C141.527 37.6834 141.266 37.3032 140.946 36.9835C140.626 36.6642 140.258 36.4145 139.84 36.2344C139.421 36.0545 138.975 35.9643 138.498 35.9643C138.021 35.9643 137.575 36.0545 137.157 36.2344C136.738 36.4145 136.37 36.6642 136.05 36.9835C135.73 37.3032 135.475 37.6865 135.284 38.1335C135.092 38.5806 134.979 39.0655 134.944 39.5881H142.087ZM138.533 44.6407C137.895 44.6407 137.302 44.5156 136.756 44.266C136.21 44.0164 135.737 43.6736 135.336 43.2381C134.935 42.8025 134.622 42.3003 134.395 41.7311C134.169 41.1622 134.055 40.5523 134.055 39.9019C134.055 39.2632 134.169 38.6621 134.395 38.0985C134.622 37.5353 134.933 37.0417 135.327 36.6176C135.722 36.1939 136.192 35.8598 136.738 35.6159C137.285 35.372 137.871 35.2501 138.498 35.2501C139.136 35.2501 139.726 35.3751 140.266 35.6246C140.807 35.8745 141.274 36.2112 141.669 36.6352C142.063 37.0593 142.375 37.5528 142.601 38.116C142.828 38.6794 142.941 39.2747 142.941 39.9019C142.941 39.96 142.938 40.0324 142.932 40.1196C142.926 40.2066 142.923 40.2619 142.923 40.2851H134.961C134.996 40.8077 135.118 41.2928 135.327 41.7398C135.536 42.187 135.801 42.5733 136.12 42.8985C136.44 43.2237 136.808 43.4794 137.226 43.6649C137.644 43.8509 138.091 43.9437 138.568 43.9437C138.881 43.9437 139.192 43.9001 139.5 43.813C139.807 43.7259 140.092 43.6069 140.354 43.4559C140.615 43.305 140.848 43.1222 141.05 42.9071C141.253 42.6923 141.414 42.4572 141.53 42.2015L142.296 42.4107C142.157 42.7358 141.963 43.035 141.712 43.3079C141.464 43.5808 141.172 43.8161 140.841 44.0135C140.51 44.2111 140.147 44.3648 139.752 44.4752C139.358 44.5853 138.951 44.6407 138.533 44.6407Z" fill="#1268A9"/>
<path fill-rule="evenodd" clip-rule="evenodd" d="M75.8741 50.8534C75.5758 50.446 75.2929 50.0435 75.009 49.6228L75.3185 49.4141C75.5995 49.8307 75.8798 50.2293 76.1752 50.6327L75.8741 50.8534ZM77.7325 53.212C77.4087 52.8283 77.0894 52.4371 76.7832 52.0489L77.0764 51.8178C77.38 52.2026 77.6967 52.5906 78.0179 52.9711L77.7325 53.212ZM142.092 53.411L141.813 53.1638C142.139 52.7942 142.464 52.4145 142.778 52.0356L143.065 52.2737C142.749 52.6556 142.422 53.0384 142.092 53.411ZM79.742 55.4412C79.3974 55.083 79.0534 54.7135 78.7193 54.3429L78.9966 54.0929C79.328 54.4605 79.6694 54.8272 80.0111 55.1824L79.742 55.4412ZM140.041 55.5897L139.777 55.3252C140.127 54.9775 140.474 54.6193 140.813 54.2608L141.084 54.5168C140.744 54.8782 140.393 55.2392 140.041 55.5897ZM81.8892 57.5366C81.5227 57.2012 81.1558 56.8545 80.7988 56.5062L81.0595 56.2388C81.4137 56.5846 81.7777 56.9284 82.1413 57.261L81.8892 57.5366ZM137.852 57.6322L137.607 57.3511C137.978 57.0271 138.348 56.6921 138.708 56.3557L138.964 56.6286C138.6 56.9677 138.226 57.3055 137.852 57.6322ZM84.1679 59.488C83.7791 59.1765 83.3905 58.8545 83.0128 58.5309L83.2556 58.2474C83.6303 58.5684 84.0157 58.8878 84.4012 59.1965L84.1679 59.488ZM135.535 59.5285L135.309 59.232C135.701 58.9318 136.093 58.6216 136.473 58.3103L136.71 58.5992C136.325 58.9132 135.931 59.2258 135.535 59.5285ZM133.098 61.2691L132.892 60.9583C133.301 60.6856 133.712 60.402 134.114 60.115L134.332 60.4189C133.926 60.7081 133.512 60.9941 133.098 61.2691ZM86.5713 61.2833C86.1646 61.0006 85.7552 60.7054 85.3545 60.406L85.5779 60.107C85.9751 60.4038 86.3811 60.6964 86.7845 60.9767L86.5713 61.2833ZM130.551 62.8445L130.366 62.5206C130.792 62.276 131.222 62.0203 131.641 61.7606L131.838 62.078C131.415 62.34 130.982 62.598 130.551 62.8445ZM89.0924 62.9084C88.6647 62.6536 88.2357 62.3876 87.8176 62.118L88.0198 61.8043C88.4343 62.0714 88.8596 62.335 89.2834 62.5876L89.0924 62.9084ZM127.903 64.2457L127.74 63.9101C128.182 63.6952 128.627 63.4689 129.064 63.2376L129.238 63.5675C128.798 63.8008 128.348 64.0291 127.903 64.2457ZM91.7235 64.3494C91.2795 64.127 90.8326 63.8926 90.395 63.6529L90.5743 63.3255C91.0081 63.563 91.4509 63.7952 91.8908 64.0156L91.7235 64.3494ZM125.165 65.464L125.026 65.118C125.482 64.9332 125.943 64.7378 126.393 64.5373L126.545 64.8784C126.09 65.0806 125.626 65.2777 125.165 65.464ZM94.4535 65.5925C93.9944 65.4038 93.5312 65.2033 93.077 64.9964L93.2318 64.6566C93.6817 64.8616 94.1406 65.0603 94.5955 65.2471L94.4535 65.5925ZM122.35 66.4912L122.234 66.1362C122.703 65.9836 123.175 65.8204 123.639 65.6513L123.767 66.0021C123.299 66.1726 122.822 66.3371 122.35 66.4912ZM97.2693 66.6265C96.7968 66.4732 96.3199 66.3081 95.8517 66.1363L95.9803 65.7858C96.4441 65.9561 96.9166 66.1195 97.3845 66.2713L97.2693 66.6265ZM119.469 67.3191L119.378 66.9568C119.856 66.8377 120.339 66.7081 120.814 66.5717L120.917 66.9305C120.438 67.068 119.951 67.1988 119.469 67.3191ZM100.155 67.4426C99.6714 67.3255 99.1832 67.1974 98.7044 67.0622L98.806 66.7029C99.2803 66.8369 99.7638 66.9637 100.243 67.0797L100.155 67.4426ZM116.536 67.9405L116.471 67.5727C116.956 67.488 117.447 67.3932 117.931 67.2908L118.008 67.656C117.52 67.7593 117.025 67.855 116.536 67.9405ZM103.096 68.0361C103.002 68.0208 102.907 68.0051 102.813 67.9891C102.416 67.9214 102.014 67.8468 101.62 67.7673L101.694 67.4013C102.084 67.48 102.482 67.5541 102.876 67.621C102.969 67.6368 103.062 67.6524 103.156 67.6676L103.096 68.0361ZM113.564 68.3488L113.527 67.9773C114.017 67.9282 114.513 67.8691 115.003 67.8019L115.054 68.1717C114.56 68.2395 114.058 68.2991 113.564 68.3488ZM106.073 68.4058C105.576 68.3631 105.074 68.3103 104.581 68.2491L104.627 67.8785C105.116 67.9392 105.613 67.9915 106.105 68.0338L106.073 68.4058ZM110.57 68.5387L110.56 68.1655C111.053 68.1525 111.553 68.1301 112.045 68.0988L112.069 68.4714C111.572 68.503 111.068 68.5256 110.57 68.5387ZM109.069 68.5505C108.571 68.5449 108.066 68.53 107.57 68.5061L107.588 68.1332C108.079 68.1569 108.579 68.1717 109.074 68.1772L109.069 68.5505Z" fill="#1268A9"/>
<path fill-rule="evenodd" clip-rule="evenodd" d="M31.0365 17.2647C30.6458 17.2473 30.2491 17.2371 29.8572 17.2341L29.551 17.2321L29.5532 16.8588L29.86 16.8608C30.2564 16.8637 30.6577 16.8742 31.0531 16.8917L31.0365 17.2647ZM26.5769 17.3096L26.5527 16.937C27.0476 16.9049 27.5384 16.8832 28.0532 16.8705L28.0623 17.2437C27.5526 17.2562 27.0668 17.2778 26.5769 17.3096ZM33.9917 17.5346C33.5033 17.4668 33.0072 17.4098 32.5173 17.3651L32.5513 16.9933C33.0469 17.0386 33.5488 17.0962 34.043 17.1648L33.9917 17.5346ZM23.624 17.6327L23.5665 17.2638C24.056 17.1875 24.5571 17.1213 25.0561 17.067L25.0966 17.4381C24.6033 17.4919 24.1078 17.5573 23.624 17.6327ZM36.9093 18.0787C36.4292 17.9659 35.9405 17.863 35.4567 17.7728L35.5251 17.4058C36.0146 17.4972 36.509 17.6012 36.9946 17.7153L36.9093 18.0787ZM20.7169 18.2311L20.6235 17.8698C21.1029 17.7459 21.5954 17.6318 22.0877 17.5306L22.1629 17.8964C21.6767 17.9962 21.1902 18.1089 20.7169 18.2311ZM39.7654 18.8887C39.2965 18.7324 38.819 18.5853 38.3464 18.4512L38.4483 18.092C38.9263 18.2277 39.4092 18.3765 39.8834 18.5344L39.7654 18.8887ZM17.8876 19.1217L17.7567 18.772C18.2219 18.5978 18.7002 18.4332 19.1782 18.2829L19.2902 18.6391C18.8186 18.7874 18.3467 18.9497 17.8876 19.1217ZM42.5388 19.9506C42.0857 19.7541 41.6231 19.5651 41.1636 19.3891L41.2971 19.0404C41.7617 19.2185 42.2294 19.4094 42.6874 19.6081L42.5388 19.9506ZM15.1739 20.314L15.0046 19.9813C15.4476 19.7558 15.905 19.5395 16.3637 19.3381L16.5139 19.6799C16.0615 19.8785 15.6107 20.0918 15.1739 20.314ZM45.2116 21.2483C44.7761 21.0136 44.3311 20.7857 43.8888 20.5711L44.0519 20.2353C44.4987 20.4522 44.9486 20.6824 45.3886 20.9195L45.2116 21.2483ZM12.6151 21.8077L12.4086 21.4967C12.8243 21.2204 13.2537 20.9529 13.6846 20.7014L13.8727 21.0237C13.4481 21.2716 13.0249 21.5354 12.6151 21.8077ZM47.7677 22.7644C47.3528 22.4947 46.928 22.2308 46.5051 21.98L46.6955 21.659C47.1227 21.9123 47.5521 22.1789 47.9712 22.4513L47.7677 22.7644ZM10.2483 23.589L10.0069 23.3042C10.3881 22.9809 10.7832 22.6651 11.1813 22.3656L11.4058 22.6637C11.0134 22.959 10.624 23.2703 10.2483 23.589ZM50.1918 24.4848C49.8039 24.1848 49.4022 23.887 48.9975 23.5997L49.2135 23.2953C49.6223 23.5855 50.0284 23.8864 50.4201 24.1895L50.1918 24.4848ZM8.1023 25.6315L7.82989 25.3761C8.12582 25.0604 8.43406 24.7475 8.74605 24.446C8.79371 24.4 8.84125 24.3544 8.88891 24.309L9.14614 24.5795C9.09922 24.6243 9.05231 24.6693 9.00539 24.7146C8.69789 25.0117 8.39399 25.3202 8.1023 25.6315ZM52.4625 26.4043C52.093 26.0629 51.7284 25.7409 51.348 25.4195L51.5888 25.1343C51.9736 25.4592 52.3422 25.7849 52.7158 26.13L52.4625 26.4043ZM6.20365 27.9057L5.90386 27.6833C6.20153 27.282 6.51438 26.8846 6.83371 26.502L7.1203 26.7413C6.80558 27.1183 6.49709 27.5101 6.20365 27.9057ZM4.57741 30.383L4.2541 30.1961C4.50448 29.7632 4.76992 29.3326 5.0432 28.9163L5.35531 29.1211C5.08589 29.5316 4.82406 29.9562 4.57741 30.383ZM3.23714 33.0278L2.89542 32.8775C3.09702 32.4192 3.31318 31.9618 3.5378 31.5181L3.87094 31.6868C3.6493 32.1245 3.43613 32.5756 3.23714 33.0278ZM2.18758 35.8024L1.83204 35.6886C1.98486 35.2112 2.15136 34.7336 2.32708 34.2692L2.67627 34.4011C2.50292 34.8597 2.33853 35.331 2.18758 35.8024ZM1.42573 38.6713L1.06073 38.5934C1.16502 38.1039 1.28262 37.6121 1.41017 37.1314L1.77094 37.2272C1.64512 37.7018 1.52889 38.1878 1.42573 38.6713ZM0.949726 41.6018L0.578758 41.5601C0.634384 41.0659 0.703202 40.5648 0.783593 40.0708L1.15207 40.1306C1.07268 40.6187 1.00473 41.1137 0.949726 41.6018ZM0.771771 44.5656L0.398438 44.5641C0.400429 44.0773 0.417104 43.5709 0.44834 43.0589L0.821051 43.0816C0.790189 43.5866 0.773638 44.0858 0.771771 44.5656Z" fill="#1268A9"/>
</g>
<defs>
<clipPath id="clip0_727_7312">
<rect width="168" height="77" fill="white" transform="translate(0.835938)"/>
</clipPath>
</defs>
</svg>
