<svg id="Layer_1" data-name="Layer 1" xmlns="http://www.w3.org/2000/svg" viewBox="0 0 94.13 106.69">
  <g>
    <path d="M26.25,106.67,76.74,77.52V59.89L35.24,83.47V71L76.72,47.12s-.33-21.68-.13-17.46L35.36,53.13V40.68L76.89,16.36V0l3.28,1.74,0,18.3c1.77,1.11,3.63,2.16,5.37,3.39,5.43,3.82,8.67,7.42,8.57,15.16-.07,5-.07,10.73-.07,15.82,0,6.74-.39,13.48-.76,20.21a13.62,13.62,0,0,1-6.47,11.29C76,92.48,65.15,98.91,54.07,105c-4.72,2.57-10,2.08-15-.21l-12.8,1.91Z" style="fill: #104969"/>
    <path d="M17.18,91.62C6.42,88.37.41,81.24.15,71.1c-.28-10.81-.1-21.63,0-32.44C.18,31.38,4,25.89,9.8,22.34c9.82-6,20.13-11.15,30.13-16.86,5.45-3.1,10.5-1.81,15.59.64,1.17.56,2.29,1.24,4.49,2.44L17.18,33.27Z" style="fill: #f4af22"/>
  </g>
</svg>
