<svg width="24" height="24" viewBox="0 0 24 24" fill="none" xmlns="http://www.w3.org/2000/svg">
<path d="M12 0C9.62664 0 7.30655 0.703785 5.33316 2.02236C3.35977 3.34094 1.82171 5.21508 0.913457 7.4078C0.00520535 9.60051 -0.232443 12.0133 0.23058 14.3411C0.693602 16.6689 1.83649 18.807 3.51472 20.4853C5.19295 22.1635 7.33115 23.3064 9.65892 23.7694C11.9867 24.2324 14.3995 23.9948 16.5922 23.0865C18.7849 22.1783 20.6591 20.6402 21.9776 18.6668C23.2962 16.6934 24 14.3734 24 12C24 8.8174 22.7357 5.76515 20.4853 3.51472C18.2349 1.26428 15.1826 0 12 0ZM15.8517 6.9661C15.4086 6.9661 14.9655 6.9661 14.5242 6.9661C14.3215 6.96913 14.1195 6.99224 13.9213 7.03511C13.7483 7.06764 13.5898 7.15367 13.4683 7.28106C13.3468 7.40846 13.2683 7.57078 13.244 7.74516C13.2131 7.89763 13.1967 8.05267 13.1949 8.20823C13.1949 8.773 13.1949 9.33958 13.1949 9.90617C13.1949 9.92433 13.1949 9.94067 13.1949 9.9661H15.7373C15.8444 9.9661 15.8463 9.9661 15.8335 10.0678C15.7754 10.5127 15.7155 10.9576 15.6519 11.4044C15.6047 11.7676 15.5575 12.1471 15.5139 12.5212C15.4958 12.6628 15.4994 12.6628 15.3578 12.6628H13.1786V19.4001C13.1786 19.4546 13.1786 19.5073 13.1786 19.5617H10.3747C10.3747 19.5254 10.3747 19.4891 10.3747 19.451V12.6646H8.14285C8.04479 12.6646 8.04298 12.6646 8.04298 12.5684C8.04298 11.733 8.04298 10.8977 8.04298 10.0623C8.04298 9.98607 8.0666 9.9661 8.14105 9.9661C8.85292 9.9661 9.56476 9.9661 10.2766 9.9661H10.3765V9.88619C10.3765 9.19067 10.3765 8.49515 10.3765 7.80145C10.3773 7.2449 10.5014 6.69542 10.7397 6.19249C11.0519 5.52123 11.6086 4.99446 12.296 4.71973C12.7635 4.52526 13.2661 4.42943 13.7724 4.43825C14.3553 4.44733 14.9382 4.47458 15.5212 4.49455C15.6301 4.49455 15.7373 4.51634 15.8462 4.5236C15.9062 4.5236 15.9262 4.54903 15.9262 4.60895C15.9262 4.95399 15.9262 5.30084 15.9262 5.64769C15.9262 6.05629 15.9262 6.46307 15.9262 6.87167C15.9389 6.94431 15.9225 6.9661 15.8517 6.9661V6.9661Z" fill="black"/>
</svg>
