<?xml version="1.0" encoding="utf-8"?>
<!-- Generator: Adobe Illustrator 24.0.3, SVG Export Plug-In . SVG Version: 6.00 Build 0)  -->
<svg version="1.1" id="Layer_1" xmlns="http://www.w3.org/2000/svg" xmlns:xlink="http://www.w3.org/1999/xlink" x="0px" y="0px"
	 viewBox="0 0 50 50" style="enable-background:new 0 0 50 50;" xml:space="preserve">
<title>facebook</title>
<g >
	<g>
		<path d="M28.3,50V27.2h2.8c1.5,0,3.1,0,4.6,0c0.2,0,0.7-0.3,0.7-0.5c0.4-2.8,0.8-5.6,1.2-8.4h-9.2c0-2.5-0.1-4.8,0-7.2
			c0.1-1.5,1.4-2.7,3-2.6c0,0,0,0,0,0c1.4-0.1,2.9-0.1,4.3-0.2h2V0.4c-0.4,0-0.9-0.1-1.4-0.2C33,0.1,29.5-0.4,26.2,0.6
			c-4.3,1.1-7.4,4.7-7.7,9c-0.2,2.6-0.1,5.1-0.2,7.7c0,0.3,0,0.6,0,1.1h-8v8.9h8v22.7L28.3,50z"/>
	</g>
</g>
</svg>
