<svg id="f67184d6-ed16-4c85-afc6-e6ef4bc462e1" data-name="Layer 1" xmlns="http://www.w3.org/2000/svg" xmlns:xlink="http://www.w3.org/1999/xlink" viewBox="0 0 163.5 258">
  <defs>
    <linearGradient id="f31f4cdf-14ae-4c05-b2b9-91de237defbd" x1="51.5" y1="203.5" x2="51.5" y2="100.5" gradientTransform="matrix(1, 0, 0, -1, 0, 260)" gradientUnits="userSpaceOnUse">
      <stop offset="0" stop-color="#355ba5"/>
      <stop offset="1" stop-color="#2a4785"/>
    </linearGradient>
    <linearGradient id="bfc455c3-070a-43e1-9b36-001ec419754e" x1="112" y1="260" x2="112" y2="157" gradientTransform="matrix(1, 0, 0, -1, 0, 260)" gradientUnits="userSpaceOnUse">
      <stop offset="0" stop-color="#8abc3f"/>
      <stop offset="1" stop-color="#628c2d"/>
    </linearGradient>
    <linearGradient id="befb9898-7104-49fb-9bb5-0bc04c83779f" x1="112" y1="82" x2="112" y2="2" gradientTransform="matrix(1, 0, 0, -1, 0, 260)" gradientUnits="userSpaceOnUse">
      <stop offset="0" stop-color="#45bce1"/>
      <stop offset="1" stop-color="#3797b4"/>
    </linearGradient>
  </defs>
  <g id="a0845728-931b-4b88-af1b-b14eac873b33" data-name="Layer 1-2">
    <path d="M51.5,56.5h0A51.5,51.5,0,0,1,103,108h0a51.5,51.5,0,0,1-51.5,51.5h0A51.5,51.5,0,0,1,0,108H0A51.5,51.5,0,0,1,51.5,56.5Z" style="fill: url(#f31f4cdf-14ae-4c05-b2b9-91de237defbd)"/>
    <path d="M112,0h0a51.5,51.5,0,0,1,51.5,51.5h0A51.5,51.5,0,0,1,112,103h0A51.5,51.5,0,0,1,60.5,51.5h0A51.5,51.5,0,0,1,112,0Z" style="fill: url(#bfc455c3-070a-43e1-9b36-001ec419754e)"/>
  </g>
  <path d="M112,178h0a40,40,0,0,1,40,40h0a40,40,0,0,1-40,40h0a40,40,0,0,1-40-40h0A40,40,0,0,1,112,178Z" style="fill: url(#befb9898-7104-49fb-9bb5-0bc04c83779f)"/>
</svg>
