<svg width="24" height="24" viewBox="0 0 24 24" fill="none" xmlns="http://www.w3.org/2000/svg">
<path fill-rule="evenodd" clip-rule="evenodd" d="M12 24C18.6274 24 24 18.6274 24 12C24 5.37258 18.6274 0 12 0C5.37258 0 0 5.37258 0 12C0 18.6274 5.37258 24 12 24ZM14.8278 6.303C14.0896 6.26938 13.8684 6.26216 11.9994 6.26216L12.0005 6.26105C10.1314 6.26105 9.91025 6.26827 9.17202 6.30189C8.48963 6.33301 8.11899 6.44692 7.87226 6.54278C7.56787 6.65486 7.29252 6.83384 7.06651 7.06651C6.83384 7.29252 6.65486 7.56787 6.54278 7.87226C6.44692 8.11899 6.33301 8.48963 6.30189 9.17202C6.26827 9.91025 6.26105 10.1314 6.26105 12.0005C6.26105 13.8695 6.26827 14.0907 6.30189 14.8289C6.33301 15.5113 6.44692 15.8819 6.54278 16.1287C6.65486 16.4331 6.83384 16.7084 7.06651 16.9344C7.29252 17.1671 7.56787 17.3461 7.87226 17.4582C8.11899 17.554 8.48963 17.6679 9.17202 17.699C9.90997 17.7327 10.1314 17.7399 12.0005 17.7399C13.8695 17.7399 14.091 17.7327 14.8289 17.699C15.5113 17.6679 15.8819 17.554 16.1287 17.4582C16.4305 17.3416 16.7045 17.1632 16.9333 16.9344C17.1621 16.7057 17.3405 16.4316 17.457 16.1298C17.5529 15.8831 17.6668 15.5124 17.6979 14.83C17.7316 14.0918 17.7388 13.8706 17.7388 12.0016C17.7388 10.1325 17.7316 9.91136 17.6979 9.17313C17.6668 8.49074 17.5529 8.1201 17.457 7.87337C17.345 7.56898 17.166 7.29363 16.9333 7.06763C16.7073 6.83495 16.432 6.65597 16.1276 6.54389C15.8808 6.44803 15.5102 6.33412 14.8278 6.303ZM9.1145 5.04214C9.86107 5.00797 10.0995 4.99991 12.0005 4.99991L11.9994 5.00102C13.9004 5.00102 14.1399 5.00936 14.8848 5.04326C15.6297 5.07715 16.1392 5.19551 16.5838 5.36833C17.051 5.54436 17.4743 5.82008 17.8241 6.1763C18.18 6.52596 18.4555 6.94903 18.6312 7.41604C18.8043 7.86059 18.9224 8.36738 18.9566 9.11395C18.9907 9.86051 18.9988 10.0989 18.9988 11.9999C18.9988 13.9009 18.9905 14.141 18.9566 14.8859C18.9227 15.6308 18.8043 16.1403 18.6312 16.5849C18.4515 17.05 18.1765 17.4724 17.8239 17.825C17.4713 18.1776 17.0489 18.4526 16.5838 18.6323C16.1392 18.8054 15.6324 18.9235 14.8859 18.9577C14.1393 18.9919 13.9009 18.9999 11.9999 18.9999C10.0989 18.9999 9.85885 18.9916 9.11395 18.9577C8.36905 18.9238 7.85948 18.8054 7.41493 18.6323C6.94767 18.4565 6.5244 18.1809 6.17464 17.8246C5.81868 17.4749 5.54315 17.0519 5.36722 16.5849C5.1944 16.1403 5.07632 15.633 5.04214 14.8864C5.00797 14.1399 4.99991 13.9015 4.99991 12.0005C4.99991 10.0995 5.00825 9.85996 5.04214 9.11506C5.07604 8.37016 5.1944 7.86059 5.36722 7.41604C5.54308 6.94887 5.81861 6.52563 6.17464 6.17575C6.52452 5.81972 6.94776 5.54419 7.41493 5.36833C7.85948 5.19551 8.36794 5.07632 9.1145 5.04214ZM11.9994 8.40629C11.2885 8.40629 10.5936 8.61708 10.0026 9.01202C9.41152 9.40695 8.95084 9.96829 8.6788 10.625C8.40677 11.2818 8.33559 12.0045 8.47427 12.7017C8.61296 13.3989 8.95527 14.0393 9.45793 14.542C9.96058 15.0446 10.601 15.3869 11.2982 15.5256C11.9954 15.6643 12.7181 15.5931 13.3748 15.3211C14.0316 15.049 14.5929 14.5884 14.9879 13.9973C15.3828 13.4062 15.5936 12.7113 15.5936 12.0005C15.5936 11.5285 15.5007 11.0611 15.3201 10.625C15.1395 10.1889 14.8747 9.79268 14.541 9.45892C14.2072 9.12516 13.811 8.86041 13.3749 8.6798C12.9388 8.49919 12.4714 8.40625 11.9994 8.40629ZM11.9994 14.3344C11.5378 14.3344 11.0866 14.1975 10.7028 13.941C10.319 13.6846 10.0198 13.3201 9.84317 12.8936C9.66652 12.4672 9.6203 11.9979 9.71036 11.5452C9.80041 11.0924 10.0227 10.6766 10.3491 10.3502C10.6755 10.0238 11.0914 9.80148 11.5441 9.71143C11.9968 9.62138 12.4661 9.66759 12.8925 9.84424C13.319 10.0209 13.6835 10.32 13.94 10.7038C14.1964 11.0876 14.3333 11.5389 14.3333 12.0005C14.3333 12.6195 14.0874 13.2131 13.6497 13.6508C13.212 14.0885 12.6184 14.3344 11.9994 14.3344ZM16.5753 8.26366C16.5753 8.72754 16.1992 9.10358 15.7353 9.10358C15.2715 9.10358 14.8954 8.72754 14.8954 8.26366C14.8954 7.79979 15.2715 7.42374 15.7353 7.42374C16.1992 7.42374 16.5753 7.79979 16.5753 8.26366Z" fill="black"/>
</svg>
