<svg width="153" height="35" viewBox="0 0 153 35" fill="none" xmlns="http://www.w3.org/2000/svg">
<path d="M21.4344 19.8334C21.4344 19.8334 21.2354 26.7103 31.1835 29.4337C28.3065 19.6472 21.4344 19.8334 21.4344 19.8334Z" fill="#08619B"/>
<path d="M15.7779 14.3025C15.7779 14.3025 15.9768 7.42746 6.02881 4.70215C8.90777 14.4984 15.7779 14.3025 15.7779 14.3025Z" fill="#08619B"/>
<path d="M18.6231 21.4224C18.6231 21.4224 13.5516 26.152 18.6231 35C23.6171 26.0736 18.6231 21.4224 18.6231 21.4224Z" fill="#08619B"/>
<path d="M18.5895 13.5776C18.5895 13.5776 23.661 8.84796 18.5895 0C13.5976 8.92437 18.5895 13.5776 18.5895 13.5776Z" fill="#08619B"/>
<path d="M22.5903 17.4823C22.5903 17.4823 27.3913 22.4764 36.3763 17.4823C27.3137 12.5665 22.5903 17.4823 22.5903 17.4823Z" fill="#08619B"/>
<path d="M14.6239 17.5156C14.6239 17.5156 9.821 12.5234 0.835938 17.5156C9.8986 22.4333 14.6239 17.5156 14.6239 17.5156Z" fill="#08619B"/>
<path d="M21.4104 14.2868C21.4104 14.2868 28.3919 14.4828 31.1595 4.68652C21.2214 7.52155 21.4104 14.2868 21.4104 14.2868Z" fill="#08619B"/>
<path d="M15.8018 19.8589C15.8018 19.8589 8.82028 19.663 6.05273 29.4592C15.9908 26.6242 15.8018 19.8589 15.8018 19.8589Z" fill="#08619B"/>
<path d="M29.1242 24.7747C25.8871 19.7179 21.4343 19.8335 21.4343 19.8335C21.4343 19.8335 21.313 24.3201 26.5098 27.4745C27.512 26.7068 28.393 25.797 29.1242 24.7747Z" fill="#08619B"/>
<path d="M15.7779 14.3026C15.7779 14.3026 15.8874 10.1881 11.3272 7.05334C10.2083 7.81761 9.21919 8.75129 8.39648 9.8198C11.5918 14.424 15.7779 14.3026 15.7779 14.3026Z" fill="#08619B"/>
<path d="M18.6229 21.4225C18.6229 21.4225 15.4396 24.3888 16.6333 30.0138C17.9349 30.2097 19.2592 30.2097 20.5608 30.0138C21.7586 24.3516 18.6229 21.4225 18.6229 21.4225Z" fill="#08619B"/>
<path d="M18.5893 13.5776C18.5893 13.5776 21.7727 10.6094 20.5789 4.98435C19.278 4.78842 17.9543 4.78842 16.6534 4.98435C15.4537 10.6485 18.5893 13.5776 18.5893 13.5776Z" fill="#08619B"/>
<path d="M22.5903 17.4823C22.5903 17.4823 25.6026 20.6171 31.3148 19.4416C31.5137 18.1598 31.5137 16.8558 31.3148 15.574C25.5648 14.3965 22.5903 17.4823 22.5903 17.4823Z" fill="#08619B"/>
<path d="M14.6239 17.5157C14.6239 17.5157 11.6117 14.3809 5.89751 15.5565C5.69855 16.8382 5.69855 18.1423 5.89751 19.424C11.6495 20.6035 14.6239 17.5157 14.6239 17.5157Z" fill="#08619B"/>
<path d="M21.4106 14.2868C21.4106 14.2868 25.6485 14.3985 28.8279 9.82368C28.0031 8.75709 27.0111 7.82656 25.8892 7.06702C21.3012 10.2155 21.4106 14.2868 21.4106 14.2868Z" fill="#08619B"/>
<path d="M15.8019 19.859C15.8019 19.859 11.2934 19.7414 8.08618 24.7747C8.8185 25.799 9.70008 26.7113 10.7025 27.4824C15.9252 24.2947 15.8019 19.859 15.8019 19.859Z" fill="#08619B"/>
<path d="M26.1675 21.5733C23.6965 19.7747 21.4343 19.8335 21.4343 19.8335C21.4343 19.8335 21.3766 22.1513 23.2707 24.6297C24.48 23.8647 25.4758 22.814 26.1675 21.5733Z" fill="#1268A9"/>
<path d="M15.778 14.3025C15.778 14.3025 15.8258 12.3433 14.3674 10.1078C13.1792 10.7715 12.1674 11.7027 11.4148 12.8253C13.7367 14.3613 15.778 14.3025 15.778 14.3025Z" fill="#1268A9"/>
<path d="M18.6232 21.4225C18.6232 21.4225 17.0514 22.8939 16.5361 25.7328C17.8969 26.0762 19.3237 26.0762 20.6845 25.7328C20.1851 22.8802 18.6232 21.4225 18.6232 21.4225Z" fill="#1268A9"/>
<path d="M18.5893 13.5776C18.5893 13.5776 20.1631 12.1043 20.6784 9.26728C20.0001 9.10152 19.3041 9.01601 18.6052 9.01257C17.9047 9.01538 17.2072 9.10223 16.5281 9.27119C17.0295 12.118 18.5893 13.5776 18.5893 13.5776Z" fill="#1268A9"/>
<path d="M26.9614 15.4526C24.0705 15.9464 22.5842 17.4824 22.5842 17.4824C22.5842 17.4824 24.0804 19.0322 26.9614 19.5396C27.1312 18.8726 27.2187 18.1878 27.222 17.5C27.221 16.8096 27.1335 16.1219 26.9614 15.4526Z" fill="#1268A9"/>
<path d="M14.6239 17.5158C14.6239 17.5158 13.1278 15.9661 10.2468 15.4606C9.89527 16.8009 9.89527 18.2072 10.2468 19.5476C13.1417 19.0519 14.6239 17.5158 14.6239 17.5158Z" fill="#1268A9"/>
<path d="M22.8369 10.1097C21.3626 12.3452 21.4103 14.2869 21.4103 14.2869C21.4103 14.2869 23.4696 14.3378 25.7875 12.8194C25.0341 11.7002 24.0232 10.7718 22.8369 10.1097Z" fill="#1268A9"/>
<path d="M15.8018 19.859C15.8018 19.859 13.5197 19.7983 11.0466 21.5773C11.7404 22.8166 12.7367 23.8664 13.9455 24.6317C15.8615 22.1533 15.8018 19.859 15.8018 19.859Z" fill="#1268A9"/>
<path d="M99.1046 23.3308V21.4577C98.5749 22.0119 97.9376 22.4556 97.2304 22.7626C96.533 23.0579 95.7811 23.208 95.0219 23.2034C93.1915 23.2034 91.6728 22.6013 90.4657 21.397C89.2587 20.1927 88.6539 18.6841 88.6512 16.8711C88.6467 16.0488 88.8006 15.233 89.1049 14.4671C89.3976 13.724 89.8372 13.0454 90.3981 12.4707C90.9608 11.8701 91.6445 11.3916 92.4056 11.0659C93.194 10.752 94.0384 10.5974 94.8886 10.6113C95.6786 10.6034 96.4621 10.752 97.1926 11.0482C97.9152 11.3572 98.5659 11.8086 99.1046 12.3747V10.9307H101.528V23.3308H99.1046ZM91.1641 16.8496C91.1504 17.3791 91.2449 17.9058 91.4422 18.3986C91.6394 18.8914 91.9352 19.34 92.3121 19.7179C92.6737 20.0927 93.1106 20.3892 93.5949 20.5886C94.0793 20.7879 94.6005 20.8858 95.1254 20.8758C95.629 20.8743 96.1268 20.7703 96.5876 20.5704C97.0485 20.3704 97.4624 20.0789 97.8034 19.714C98.1725 19.3605 98.4654 18.9373 98.6643 18.4696C98.8633 18.002 98.9643 17.4996 98.9614 16.9926C98.971 16.4676 98.8742 15.9459 98.6768 15.4582C98.4793 14.9704 98.1851 14.5262 97.8114 14.1517C97.4677 13.7753 97.0469 13.4749 96.5767 13.2702C96.1065 13.0656 95.5977 12.9613 95.0836 12.9644C94.5666 12.9639 94.0545 13.0642 93.5771 13.2596C93.0996 13.4549 92.6661 13.7415 92.3017 14.1027C91.9373 14.4639 91.6492 14.8926 91.4539 15.3641C91.2587 15.8356 91.1602 16.3404 91.1641 16.8496Z" fill="#08619B"/>
<path d="M124.83 28.7187C122.182 29.9393 117.904 27.9605 117.904 27.9605L118.945 25.6662C119.674 26.0849 120.481 26.3577 121.317 26.4689C122.154 26.5802 123.005 26.5278 123.821 26.3147C126.539 25.2469 126.294 22.9233 126.294 22.9233V21.4558C125.764 22.0099 125.126 22.4536 124.418 22.7607C123.721 23.0558 122.97 23.2058 122.212 23.2015C120.384 23.2015 118.865 22.5993 117.654 21.3951C116.443 20.1908 115.836 18.6828 115.835 16.8712C115.83 16.0488 115.984 15.233 116.289 14.4672C116.581 13.7235 117.022 13.0448 117.584 12.4707C118.146 11.8697 118.83 11.3912 119.591 11.0659C120.38 10.7519 121.224 10.5973 122.074 10.6114C122.863 10.6034 123.645 10.752 124.374 11.0483C125.098 11.357 125.75 11.8084 126.29 12.3747V10.9307H128.714V22.9233C128.718 25.435 127.498 27.4903 124.83 28.7187ZM118.35 16.8496C118.335 17.3792 118.429 17.9062 118.627 18.3991C118.824 18.892 119.12 19.3406 119.498 19.7179C119.859 20.0925 120.296 20.3889 120.78 20.5882C121.264 20.7876 121.785 20.8855 122.309 20.8759C122.812 20.8751 123.31 20.772 123.771 20.5731C124.232 20.3742 124.646 20.0837 124.987 19.7199C125.356 19.3661 125.649 18.9428 125.848 18.4753C126.046 18.0077 126.148 17.5055 126.145 16.9985C126.154 16.4735 126.057 15.952 125.86 15.4643C125.663 14.9766 125.369 14.5324 124.995 14.1576C124.651 13.7814 124.231 13.4811 123.76 13.2765C123.29 13.0718 122.781 12.9675 122.267 12.9703C121.751 12.97 121.24 13.0703 120.763 13.2655C120.286 13.4606 119.853 13.7467 119.489 14.1072C119.125 14.4678 118.837 14.8957 118.641 15.3664C118.446 15.837 118.347 16.3411 118.35 16.8496Z" fill="#08619B"/>
<path d="M134.472 23.3269H132.15V10.8504H134.287V12.2121C134.72 11.7112 135.26 11.3099 135.868 11.0365C136.464 10.7752 137.111 10.6461 137.763 10.6584C139.364 10.6584 140.592 11.1227 141.449 12.0514C142.306 12.9801 142.735 14.3098 142.735 16.0405V23.3347H140.355V16.5028C140.355 15.2215 140.114 14.2713 139.633 13.6521C139.151 13.033 138.409 12.7234 137.404 12.7234C136.308 12.7234 135.703 13.0879 135.216 13.8187C134.728 14.5495 134.478 15.7505 134.478 17.4276L134.472 23.3269Z" fill="#08619B"/>
<path d="M50.5363 23.3268H48.2104V10.8503H50.3473V12.212C50.7839 11.7099 51.3273 11.3086 51.939 11.0364C52.5351 10.7748 53.1825 10.6457 53.8351 10.6583C55.436 10.6583 56.665 11.1226 57.5218 12.0513C58.3787 12.98 58.8064 14.3097 58.8051 16.0404V23.3346H56.4196V16.5027C56.4196 15.2214 56.1795 14.2712 55.6993 13.652C55.2192 13.0329 54.4757 12.7234 53.469 12.7234C52.3727 12.7234 51.7679 13.0878 51.2804 13.8186C50.793 14.5494 50.5363 15.7504 50.5363 17.4373V23.3268Z" fill="#1268A9"/>
<path d="M111.213 23.3151V10.7759H113.864V23.3151H111.213Z" fill="#08619B"/>
<path d="M110.692 6.87702C110.692 6.51742 110.8 6.16589 111.003 5.86689C111.206 5.56789 111.495 5.33485 111.832 5.19724C112.169 5.05963 112.541 5.02362 112.899 5.09377C113.257 5.16393 113.586 5.33709 113.844 5.59137C114.102 5.84565 114.278 6.16962 114.349 6.52231C114.421 6.875 114.384 7.24058 114.244 7.57281C114.105 7.90504 113.868 8.189 113.564 8.38878C113.261 8.58857 112.904 8.6952 112.538 8.6952C112.049 8.6952 111.579 8.50364 111.233 8.16267C110.887 7.82169 110.692 7.35923 110.692 6.87702Z" fill="#08619B"/>
<path d="M104.988 23.3151V5.19397H107.638V23.3151H104.988Z" fill="#08619B"/>
<path d="M73.4565 23.3151V10.7759H76.1087V23.3151H73.4565Z" fill="#1268A9"/>
<path d="M72.9312 6.87702C72.9312 6.51742 73.0394 6.16589 73.2423 5.86689C73.4452 5.56789 73.7336 5.33485 74.0709 5.19724C74.4083 5.05963 74.7796 5.02362 75.1377 5.09377C75.4959 5.16393 75.8249 5.33709 76.0831 5.59137C76.3413 5.84565 76.5172 6.16962 76.5884 6.52231C76.6596 6.875 76.6231 7.24058 76.4833 7.57281C76.3436 7.90504 76.1069 8.189 75.8033 8.38878C75.4997 8.58857 75.1427 8.6952 74.7775 8.6952C74.2878 8.6952 73.8182 8.50364 73.4719 8.16267C73.1257 7.82169 72.9312 7.35923 72.9312 6.87702Z" fill="#1268A9"/>
<path d="M41.9849 23.3151V10.7759H44.637V23.3151H41.9849Z" fill="#1268A9"/>
<path d="M41.4636 6.87702C41.4636 6.51742 41.5719 6.16589 41.7748 5.86689C41.9777 5.56789 42.266 5.33485 42.6034 5.19724C42.9408 5.05963 43.312 5.02362 43.6702 5.09377C44.0284 5.16393 44.3573 5.33709 44.6156 5.59137C44.8738 5.84565 45.0496 6.16962 45.1209 6.52231C45.1921 6.875 45.1555 7.24058 45.0158 7.57281C44.8761 7.90504 44.6394 8.189 44.3358 8.38878C44.0321 8.58857 43.6752 8.6952 43.31 8.6952C42.8205 8.69468 42.3511 8.50296 42.005 8.1621C41.6588 7.82123 41.4641 7.35907 41.4636 6.87702Z" fill="#1268A9"/>
<path d="M59.5691 10.7819H62.5794L65.7946 17.6549L69.2843 10.7819H72.2926L65.7269 23.3152L59.5691 10.7819Z" fill="#1268A9"/>
<path d="M83.2594 15.9268C82.3124 15.6271 81.0529 15.1431 81.0529 14.43C81.0529 13.6463 81.5921 13.1741 82.6586 13.0311C83.5718 12.9076 84.6641 13.4405 84.9386 13.7011L86.2379 11.7105C85.3107 11.113 83.7847 10.5585 82.2905 10.7583C79.9686 11.0718 78.5281 12.4786 78.5281 14.43C78.5281 16.8614 81.4628 17.7901 82.4278 18.0938C83.9518 18.5738 84.491 18.9833 84.491 19.6612C84.491 20.9327 82.7998 21.0326 82.2825 21.0326C81.3056 21.0326 79.9268 20.4213 79.4772 20.1862L78.2058 22.169C78.4306 22.2885 80.4481 23.3289 82.2825 23.3289C84.5626 23.3289 87.0198 22.1807 87.0198 19.6631C87.0198 17.1455 84.2861 16.2619 83.2594 15.9268Z" fill="#1268A9"/>
<path d="M150.106 10.6818C149.566 10.6829 149.039 10.8416 148.591 11.1378C148.143 11.4339 147.794 11.8543 147.588 12.3457C147.383 12.8371 147.329 13.3775 147.436 13.8986C147.542 14.4197 147.802 14.8981 148.185 15.2734C148.567 15.6486 149.053 15.9039 149.583 16.0069C150.112 16.11 150.661 16.0561 151.159 15.8522C151.658 15.6483 152.084 15.3034 152.383 14.8612C152.683 14.4191 152.842 13.8994 152.842 13.3679C152.84 12.6546 152.551 11.9711 152.038 11.4675C151.525 10.9638 150.83 10.6812 150.106 10.6818ZM152.344 13.3679C152.346 13.8046 152.215 14.2317 151.97 14.5953C151.724 14.959 151.374 15.2426 150.965 15.4104C150.556 15.5783 150.105 15.6227 149.67 15.5381C149.235 15.4534 148.835 15.2436 148.521 14.9351C148.208 14.6266 147.994 14.2334 147.907 13.8051C147.82 13.3769 147.865 12.933 148.034 12.5295C148.204 12.1261 148.491 11.7813 148.86 11.5389C149.229 11.2965 149.663 11.1673 150.106 11.1677C150.699 11.1692 151.266 11.4014 151.686 11.8136C152.105 12.2257 152.342 12.7845 152.344 13.3679Z" fill="#08619B"/>
<path d="M149.046 12.0062C149.318 11.9691 149.592 11.9501 149.867 11.9493C150.325 11.9493 150.625 12.0199 150.834 12.1707C150.916 12.2269 150.983 12.302 151.029 12.3894C151.075 12.4768 151.098 12.574 151.097 12.6723C151.097 13.0171 150.814 13.2483 150.468 13.3443C150.59 13.383 150.7 13.4529 150.785 13.5469C150.871 13.6409 150.93 13.7555 150.956 13.8792C151.016 14.1289 151.101 14.3724 151.208 14.6061H150.763C150.666 14.4047 150.593 14.193 150.546 13.9752C150.448 13.6069 150.267 13.4717 149.879 13.4599H149.481V14.6159H149.054L149.046 12.0062ZM149.473 13.2072H149.913C150.369 13.2072 150.661 13.0113 150.661 12.7056C150.661 12.3647 150.351 12.2158 149.899 12.2158C149.757 12.2134 149.614 12.2233 149.473 12.2452V13.2072Z" fill="#08619B"/>
</svg>
