<svg width="141" height="69" viewBox="0 0 141 69" fill="none" xmlns="http://www.w3.org/2000/svg">
<g clip-path="url(#clip0_727_7341)">
<path d="M140.836 0.5H0.835938V68.5H140.836V0.5Z" fill="#1268A9"/>
<path d="M129.029 36.2C130.892 36.2 132.402 34.6778 132.402 32.8C132.402 30.9223 130.892 29.4 129.029 29.4C127.166 29.4 125.655 30.9223 125.655 32.8C125.655 34.6778 127.166 36.2 129.029 36.2Z" stroke="white"/>
<path d="M127.837 31.1344H129.249C129.57 31.1344 129.84 31.1832 130.061 31.2809C130.283 31.3785 130.452 31.5231 130.568 31.7145C130.685 31.9039 130.743 32.1373 130.743 32.4147C130.743 32.61 130.703 32.7887 130.623 32.9508C130.545 33.111 130.432 33.2477 130.283 33.361C130.137 33.4723 129.961 33.5553 129.756 33.61L129.598 33.6715H128.271L128.265 33.2115H129.267C129.47 33.2115 129.639 33.1764 129.774 33.1061C129.908 33.0338 130.01 32.9371 130.078 32.816C130.147 32.6949 130.181 32.5612 130.181 32.4147C130.181 32.2506 130.149 32.1071 130.084 31.984C130.02 31.861 129.918 31.7662 129.78 31.6998C129.643 31.6315 129.466 31.5973 129.249 31.5973H128.403V35.4H127.837V31.1344ZM130.33 35.4L129.293 33.4664L129.882 33.4635L130.934 35.3649V35.4H130.33Z" fill="black"/>
<path d="M107.658 56.549C114.179 56.549 119.465 51.2212 119.465 44.649C119.465 38.0768 114.179 32.749 107.658 32.749C101.137 32.749 95.8505 38.0768 95.8505 44.649C95.8505 51.2212 101.137 56.549 107.658 56.549Z" stroke="white" stroke-width="8"/>
<path fill-rule="evenodd" clip-rule="evenodd" d="M9.26978 9H16.2276V15.902H9.26978V9Z" fill="#23CCA2"/>
<path fill-rule="evenodd" clip-rule="evenodd" d="M16.2275 15.902H42.701V23.5435H33.5083V59.1755H25.901V23.5435H16.2275V15.902Z" fill="white"/>
<path fill-rule="evenodd" clip-rule="evenodd" d="M9.26978 30.522H16.2276V58.7165H9.26978V30.522Z" fill="white"/>
<path fill-rule="evenodd" clip-rule="evenodd" d="M53.2687 29.74C55.317 29.7873 57.3549 30.0493 59.3494 30.522C60.7534 31.0012 62.0511 31.7519 63.1699 32.732C64.4697 33.9153 65.6045 35.2706 66.5434 36.761C67.5105 38.3368 68.1769 40.0809 68.5084 41.9035C68.8206 43.5117 68.8206 45.1657 68.5084 46.774H46.3783C46.3459 47.5126 46.4517 48.2508 46.6903 48.95C47.0108 49.5607 47.4014 50.1313 47.8542 50.65C48.5183 51.2923 49.2676 51.8387 50.0807 52.2735C51.1035 52.6627 52.1778 52.8976 53.2687 52.9705C54.727 53.1223 56.2002 53.0304 57.6289 52.6985C58.8521 52.1883 59.9617 51.437 60.8927 50.4885L62.0397 49.1455L66.5096 53.6165L62.0397 57.0165C61.4241 57.433 60.8506 57.7985 60.294 58.1385C59.6127 58.5533 58.8887 58.8924 58.1349 59.15C56.9565 59.4168 55.7492 59.5311 54.5421 59.49C53.4679 59.4889 52.3966 59.375 51.3458 59.15C50.1428 58.8696 48.9724 58.4622 47.8542 57.9345C46.7506 57.3452 45.6933 56.6717 44.6915 55.92C43.6593 55.0299 42.7081 54.0485 41.8494 52.9875C41.1484 52.0125 40.5599 50.9602 40.0952 49.851C39.5539 48.7845 39.1892 47.636 39.0156 46.451C38.8054 44.9334 38.8682 43.3901 39.2012 41.895C39.5963 39.861 40.2989 37.9002 41.2843 36.081C42.0395 34.676 43.0971 33.4591 44.3795 32.5195C45.4313 31.5654 46.6953 30.8803 48.065 30.522C49.7623 30.0523 51.5093 29.7897 53.2687 29.74ZM53.918 35.7325C52.7359 35.7879 51.5682 36.0169 50.4518 36.4125C49.4975 36.8854 48.6393 37.534 47.9217 38.325C47.491 38.9291 47.1021 39.5625 46.7578 40.2205C46.5428 40.6967 46.4224 41.2107 46.4036 41.7335H61.3988C61.3599 41.0714 61.1816 40.4253 60.8759 39.838C60.4991 39.2115 60.0394 38.6396 59.5096 38.138C58.8513 37.4834 58.0941 36.9383 57.2662 36.523C56.1807 36.142 55.0585 35.8771 53.918 35.7325Z" fill="white"/>
<path fill-rule="evenodd" clip-rule="evenodd" d="M74.7661 30.522V58.7165H81.2179V37.543H89.6348V30.522H74.7661Z" fill="white"/>
</g>
<defs>
<clipPath id="clip0_727_7341">
<rect width="140" height="68" fill="white" transform="translate(0.835938 0.5)"/>
</clipPath>
</defs>
</svg>
