<svg width="24" height="24" viewBox="0 0 24 24" fill="none" xmlns="http://www.w3.org/2000/svg">
<path d="M12 0C9.62662 0 7.30655 0.703785 5.33316 2.02236C3.35977 3.34094 1.8217 5.21508 0.913449 7.4078C0.00519721 9.60051 -0.23244 12.0133 0.230583 14.3411C0.693605 16.6689 1.83649 18.807 3.51472 20.4853C5.19295 22.1635 7.33114 23.3064 9.65892 23.7694C11.9867 24.2324 14.3995 23.9948 16.5922 23.0865C18.7849 22.1783 20.6591 20.6402 21.9776 18.6668C23.2962 16.6934 24 14.3734 24 12C24 10.4241 23.6896 8.8637 23.0866 7.4078C22.4835 5.95189 21.5996 4.62902 20.4853 3.51472C19.371 2.40041 18.0481 1.5165 16.5922 0.913443C15.1363 0.310387 13.5759 0 12 0V0ZM8.4207 18.4703H5.74032V9.82808H8.42796L8.4207 18.4703ZM7.07688 8.64588C6.76863 8.64624 6.46722 8.55516 6.21075 8.38417C5.95428 8.21318 5.75428 7.96997 5.63607 7.68529C5.51786 7.40062 5.48676 7.08727 5.54667 6.78491C5.60659 6.48255 5.75483 6.20475 5.97267 5.98666C6.1905 5.76857 6.46812 5.62 6.77042 5.55973C7.07271 5.49947 7.38609 5.53021 7.6709 5.64809C7.95572 5.76596 8.19917 5.96567 8.37046 6.22194C8.54175 6.47821 8.63317 6.77953 8.63317 7.08777C8.63341 7.2923 8.59333 7.49487 8.51523 7.68389C8.43712 7.87292 8.32253 8.0447 8.17799 8.18941C8.03345 8.33412 7.8618 8.44891 7.67287 8.52724C7.48393 8.60556 7.2814 8.64588 7.07688 8.64588ZM18.4794 18.4703H15.7954V14.2663C15.7954 13.2639 15.7772 11.9764 14.4007 11.9764C13.0242 11.9764 12.7881 13.066 12.7881 14.1937V18.4703H10.0987V9.82808H12.6755V11.0085H12.7119C13.0751 10.3293 13.9467 9.61198 15.2542 9.61198C17.9782 9.61198 18.4758 11.4025 18.4758 13.7288L18.4794 18.4703Z" fill="black"/>
</svg>
