<svg width="390" height="72" viewBox="0 0 390 72" fill="none" xmlns="http://www.w3.org/2000/svg">
<path fill-rule="evenodd" clip-rule="evenodd" d="M209.157 23.6936L204.315 24.8649L210.502 10.1382L209.157 23.6936ZM216.689 24.8649L211.848 23.6936L210.502 10.1382L216.689 24.8649Z" fill="black"/>
<path fill-rule="evenodd" clip-rule="evenodd" d="M210.503 26.3006L211.153 25.1627L211.803 24.0229H210.503H209.203L209.853 25.1627L210.503 26.3006Z" fill="black"/>
<path fill-rule="evenodd" clip-rule="evenodd" d="M196.047 40.917L210.475 0.211426L189.278 40.917H196.047Z" fill="black"/>
<path fill-rule="evenodd" clip-rule="evenodd" d="M224.951 40.917L210.522 0.211426L231.719 40.917H224.951Z" fill="black"/>
<path fill-rule="evenodd" clip-rule="evenodd" d="M211.583 28.3853H216.46L220.479 40.9267H217.437L214.366 31.3079H211.53C211.565 30.3304 211.583 29.356 211.583 28.3853ZM204.553 28.3853H209.357C209.301 29.3609 209.224 30.3359 209.126 31.3079H206.632L203.564 40.9139H200.523L204.553 28.3853Z" fill="black"/>
<path d="M251.685 41.5137C253.767 41.4961 255.709 41.2389 257.528 40.7235C259.348 40.2068 261.009 39.5229 262.52 38.6616C264.033 37.8088 265.359 36.8574 266.502 35.8089V20.9332H251.263V24.7196H262.494V33.9968C261.642 34.6983 260.666 35.3293 259.55 35.8891C258.434 36.449 257.221 36.8927 255.92 37.2209C254.61 37.551 253.257 37.7188 251.842 37.7291C249.593 37.7188 247.571 37.3286 245.778 36.5553C243.985 35.7815 242.447 34.7068 241.172 33.3124C239.907 31.9167 238.932 30.2731 238.255 28.3984C237.578 26.5146 237.243 24.4534 237.235 22.214V22.107C237.243 20.0099 237.596 18.0465 238.281 16.2065C238.966 14.3677 239.933 12.7417 241.181 11.3369C242.439 9.92481 243.915 8.82274 245.619 8.02218C247.334 7.22284 249.214 6.81436 251.263 6.80524C252.994 6.81375 254.523 6.99185 255.858 7.35536C257.203 7.71096 258.407 8.2088 259.479 8.84828C260.551 9.48897 261.554 10.2269 262.494 11.0706L265.182 7.87205C263.97 6.82348 262.696 5.92627 261.36 5.18832C260.025 4.45098 258.548 3.89053 256.931 3.50028C255.323 3.10821 253.486 2.91309 251.42 2.91309C249.197 2.9216 247.141 3.26869 245.242 3.93552C243.343 4.60964 241.64 5.55304 240.118 6.76087C238.606 7.96869 237.316 9.38197 236.234 10.9995C235.163 12.617 234.344 14.3762 233.773 16.2782C233.202 18.1796 232.92 20.1521 232.911 22.214V22.3198C232.911 24.4619 233.193 26.4873 233.747 28.4069C234.309 30.3265 235.118 32.0857 236.181 33.6856C237.244 35.2758 238.536 36.6617 240.066 37.8264C241.595 38.9996 243.327 39.9053 245.278 40.546C247.227 41.1848 249.363 41.5052 251.685 41.5137Z" fill="black"/>
<path d="M279.053 22.5872V7.44526H290.443C292.438 7.44526 294.135 7.74737 295.541 8.33335C296.947 8.92055 298.019 9.76425 298.758 10.8578C299.505 11.9501 299.874 13.265 299.882 14.8029V14.9098C299.874 16.1091 299.646 17.1838 299.18 18.1345C298.714 19.0761 298.063 19.8846 297.211 20.5429C296.368 21.2097 295.366 21.7161 294.214 22.062C293.054 22.409 291.781 22.5872 290.391 22.5872H279.053ZM274.888 40.8741H279.053V26.3717H289.599L300.305 40.8741H305.42L294.083 25.6253C295.542 25.359 296.876 24.9323 298.099 24.3463C299.313 23.7603 300.375 23.0139 301.271 22.1069C302.168 21.2012 302.861 20.1338 303.354 18.9084C303.846 17.6817 304.092 16.2958 304.101 14.7494V14.6424C304.092 13.1683 303.846 11.7994 303.354 10.5466C302.854 9.28404 302.16 8.20022 301.254 7.28478C300.085 6.10309 298.617 5.18826 296.842 4.53906C295.067 3.89108 293.036 3.56283 290.76 3.55371H274.889V40.8741H274.888Z" fill="black"/>
<path d="M320.131 27.1716L328.568 8.1916L336.952 27.1716H320.131ZM309.848 40.874H314.12L318.496 31.0108H338.586L342.91 40.874H347.393L330.57 3.28613H326.669L309.848 40.874Z" fill="black"/>
<path d="M354.671 40.8741H358.73V10.6973L372.178 30.6377H372.389L385.835 10.6438V40.8741H390V3.55371H385.782L372.336 23.9196L358.89 3.55371H354.671V40.8741Z" fill="black"/>
<path d="M15.4307 41.4493C17.3859 41.4493 19.1648 41.1915 20.7773 40.6931C22.3807 40.1849 23.781 39.4549 24.9521 38.4932C26.1233 37.5316 27.0305 36.356 27.6738 34.9852C28.3075 33.6042 28.6333 32.0365 28.6424 30.2828V30.1758C28.6424 28.6355 28.3959 27.2818 27.8938 26.1238C27.3918 24.9579 26.6511 23.9513 25.6567 23.0966C24.6695 22.2407 23.428 21.5016 21.9569 20.8694C20.4779 20.2463 18.7602 19.6938 16.8051 19.2221C15.0345 18.7942 13.5724 18.3851 12.4186 17.9839C11.2643 17.5833 10.3661 17.1639 9.71439 16.7189C9.0723 16.2831 8.61297 15.7846 8.35805 15.2406C8.09352 14.688 7.97027 14.0565 7.97929 13.3435V13.2365C7.97929 12.4092 8.22699 11.6603 8.69353 10.9935C9.16849 10.3254 9.85627 9.79899 10.7545 9.40753C11.6437 9.00695 12.7367 8.81181 14.004 8.8027C15.6958 8.8027 17.378 9.13277 19.0428 9.78197C20.716 10.4324 22.3807 11.3855 24.0461 12.6493L27.5331 7.68058C25.6664 6.14877 23.6397 4.99079 21.4386 4.18962C19.2358 3.38724 16.7961 2.98666 14.1099 2.97754C12.2689 2.98666 10.5783 3.245 9.03683 3.77019C7.50494 4.2966 6.16604 5.03577 5.03816 5.99741C3.91089 6.95905 3.03853 8.09879 2.42168 9.42637C1.80544 10.7436 1.4892 12.2128 1.47898 13.8255V13.9325C1.47898 15.6418 1.75254 17.1025 2.29844 18.3146C2.83652 19.5254 3.63733 20.5406 4.68585 21.3776C5.73436 22.2146 7.01975 22.9276 8.54323 23.5148C10.0763 24.102 11.8204 24.6284 13.7924 25.0995C15.5017 25.5001 16.9019 25.8922 17.9943 26.2928C19.0957 26.6934 19.941 27.1128 20.5488 27.5583C21.1482 28.0033 21.5703 28.4926 21.8078 29.019C22.038 29.5528 22.1523 30.1497 22.1426 30.8177V30.9247C22.1336 31.859 21.8703 32.679 21.3412 33.3817C20.8032 34.0862 20.0552 34.6284 19.0771 35.0205C18.1001 35.4211 16.9374 35.6174 15.59 35.6265C14.084 35.6265 12.6567 35.4314 11.3262 35.0564C9.99636 34.6734 8.71938 34.1209 7.50433 33.4005C6.28026 32.679 5.08145 31.797 3.91029 30.7642L0 35.4655C2.22869 37.4702 4.64978 38.9649 7.25723 39.963C9.86349 40.9514 12.5942 41.4493 15.4307 41.4493Z" fill="black"/>
<path d="M53.4809 41.5556C55.771 41.5465 57.8151 41.2796 59.5941 40.7368C61.3737 40.2019 62.9843 39.4366 64.42 38.4567C65.8641 37.4689 67.2216 36.2927 68.489 34.9305L64.3142 30.656C63.2669 31.6541 62.219 32.5166 61.1614 33.2297C60.1045 33.95 58.9676 34.5025 57.7616 34.8855C56.5543 35.2684 55.1986 35.4642 53.692 35.4642C51.913 35.4557 50.2825 35.1086 48.7945 34.4229C47.3143 33.7463 46.0199 32.7932 44.9269 31.5811C43.8441 30.3709 42.9988 28.9722 42.391 27.3686C41.7916 25.7748 41.4928 24.057 41.4832 22.2133V22.1063C41.4928 20.2627 41.8006 18.5449 42.4 16.9596C43.0078 15.3645 43.8531 13.9664 44.9546 12.7647C46.0464 11.5538 47.3317 10.6183 48.821 9.94177C50.3011 9.26522 51.922 8.91752 53.692 8.90901C55.0928 8.90901 56.3956 9.10414 57.6023 9.49621C58.7999 9.87916 59.9277 10.422 60.9853 11.1174C62.0506 11.8116 63.0721 12.6231 64.0502 13.5573L68.2251 8.69505C67.0539 7.54558 65.7847 6.53044 64.4104 5.66727C63.036 4.79377 61.4771 4.10871 59.742 3.61938C57.9984 3.12944 55.9988 2.879 53.7443 2.87109C51.4975 2.8796 49.4017 3.20907 47.455 3.86009C45.5173 4.50929 43.7551 5.42777 42.1878 6.6204C40.6198 7.80513 39.2725 9.20322 38.1542 10.8141C37.036 12.4176 36.1721 14.1895 35.5726 16.1225C34.9744 18.0458 34.6744 20.0761 34.666 22.2133V22.3203C34.6744 24.4752 34.9835 26.514 35.5913 28.4476C36.1991 30.3709 37.0618 32.1343 38.1807 33.7275C39.308 35.3311 40.6469 36.7109 42.1968 37.878C43.7557 39.0451 45.4818 39.9441 47.3847 40.5848C49.2887 41.2279 51.3142 41.5471 53.4809 41.5556Z" fill="black"/>
<path fill-rule="evenodd" clip-rule="evenodd" d="M81.8069 22.0538V9.49712H91.2664C92.8783 9.49712 94.2526 9.73783 95.3883 10.2101C96.5336 10.6903 97.4054 11.3858 98.0132 12.303C98.6211 13.2288 98.9295 14.3594 98.9295 15.6955V15.8025C98.9198 17.0766 98.612 18.1805 97.9868 19.1068C97.3705 20.0411 96.4982 20.7627 95.3625 21.2793C94.2256 21.7869 92.8783 22.0459 91.3187 22.0544H81.8069V22.0538ZM196.992 62.0014C177.251 74.5173 149.605 66.8758 131.133 58.3512C149.163 67.7171 177.673 77.2193 196.992 62.0014ZM210.682 25.5867C213.157 105.572 113.039 65.7683 89.945 27.8771H81.8069V40.9152H75.3066V3.5127H91.7949C94.1294 3.52181 96.1904 3.85128 97.988 4.50047C99.7844 5.15089 101.274 6.06815 102.471 7.25227C103.458 8.2674 104.206 9.46064 104.735 10.8241C105.263 12.1863 105.527 13.6816 105.536 15.3198V15.4268C105.527 17.4759 105.148 19.2473 104.4 20.7615C103.66 22.2756 102.629 23.5218 101.316 24.5199C100.004 25.5076 98.49 26.2565 96.7633 26.7556C118.198 61.1036 208.922 95.657 210.327 25.5642L210.682 25.5867Z" fill="black"/>
<path d="M120.385 3.51318H113.885V40.9157H120.385V3.51318Z" fill="black"/>
<path d="M136.767 22.9619V9.49712H144.324C145.953 9.49712 147.362 9.74634 148.551 10.2539C149.749 10.7615 150.665 11.5018 151.316 12.4981C151.968 13.4871 152.295 14.7162 152.303 16.1769V16.2839C152.295 17.5927 151.968 18.75 151.326 19.7475C150.683 20.7457 149.767 21.5292 148.577 22.0987C147.389 22.6598 145.97 22.9534 144.324 22.9619H136.767ZM130.266 40.9158H136.767V28.8928H144.112C146.165 28.8928 148.075 28.6181 149.855 28.0741C151.643 27.5306 153.21 26.7295 154.568 25.6517C155.915 24.5831 156.981 23.247 157.747 21.6532C158.503 20.0679 158.901 18.2242 158.91 16.1228V16.0159C158.901 13.4865 158.328 11.2958 157.192 9.426C156.056 7.55621 154.445 6.11253 152.348 5.08037C150.251 4.0464 147.759 3.53032 144.852 3.5127H130.266V40.9158Z" fill="black"/>
<path d="M174.66 40.9157H181.212V9.60398H192.946V3.51318H162.928V9.60398H174.66V40.9157Z" fill="black"/>
<path fill-rule="evenodd" clip-rule="evenodd" d="M209.157 23.4826L204.315 24.654L210.502 9.92725L209.157 23.4826ZM216.689 24.654L211.848 23.4826L210.502 9.92725L216.689 24.654Z" fill="black"/>
<path fill-rule="evenodd" clip-rule="evenodd" d="M210.503 26.0897L211.153 24.9518L211.803 23.812H210.503H209.203L209.853 24.9518L210.503 26.0897Z" fill="black"/>
<path fill-rule="evenodd" clip-rule="evenodd" d="M196.047 40.7056L210.475 0L189.278 40.7056H196.047Z" fill="black"/>
<path fill-rule="evenodd" clip-rule="evenodd" d="M224.951 40.7056L210.522 0L231.719 40.7056H224.951Z" fill="black"/>
<path fill-rule="evenodd" clip-rule="evenodd" d="M211.583 28.1743H216.46L220.479 40.7157H217.437L214.366 31.0969H211.53C211.565 30.1195 211.583 29.1451 211.583 28.1743ZM204.553 28.1743H209.357C209.301 29.1499 209.224 30.1249 209.126 31.0969H206.632L203.564 40.703H200.523L204.553 28.1743Z" fill="black"/>
<path d="M251.685 41.3032C253.767 41.2856 255.709 41.0285 257.528 40.513C259.348 39.9963 261.009 39.3125 262.52 38.4511C264.033 37.5983 265.359 36.647 266.502 35.5984V20.7228H251.263V24.5092H262.494V33.7864C261.642 34.4879 260.666 35.1188 259.55 35.6787C258.434 36.2385 257.221 36.6822 255.92 37.0105C254.61 37.3406 253.257 37.5083 251.842 37.5187C249.593 37.5083 247.571 37.1181 245.778 36.3449C243.985 35.5711 242.447 34.4964 241.172 33.1019C239.907 31.7063 238.932 30.0626 238.255 28.188C237.578 26.3042 237.243 24.2429 237.235 22.0035V21.8966C237.243 19.7994 237.596 17.836 238.281 15.996C238.966 14.1572 239.933 12.5312 241.181 11.1264C242.439 9.71436 243.915 8.61229 245.619 7.81174C247.334 7.01239 249.214 6.60391 251.263 6.59479C252.994 6.6033 254.523 6.78141 255.858 7.14491C257.203 7.50051 258.407 7.99835 259.479 8.63783C260.551 9.27852 261.554 10.0165 262.494 10.8602L265.182 7.6616C263.97 6.61303 262.696 5.71582 261.36 4.97787C260.025 4.24053 258.548 3.68008 256.931 3.28984C255.323 2.89776 253.486 2.70264 251.42 2.70264C249.197 2.71115 247.141 3.05824 245.242 3.72507C243.343 4.39919 241.64 5.34259 240.118 6.55042C238.606 7.75824 237.316 9.17152 236.234 10.7891C235.163 12.4066 234.344 14.1657 233.773 16.0678C233.202 17.9692 232.92 19.9417 232.911 22.0035V22.1093C232.911 24.2514 233.193 26.2768 233.747 28.1965C234.309 30.1161 235.118 31.8753 236.181 33.4752C237.244 35.0653 238.536 36.4513 240.066 37.6159C241.595 38.7891 243.327 39.6948 245.278 40.3355C247.227 40.9744 249.363 41.2947 251.685 41.3032Z" fill="black"/>
<path d="M279.053 22.3757V7.23384H290.443C292.438 7.23384 294.135 7.53594 295.541 8.12192C296.947 8.70912 298.019 9.55283 298.758 10.6464C299.505 11.7387 299.874 13.0535 299.882 14.5914V14.6984C299.874 15.8977 299.646 16.9724 299.18 17.9231C298.714 18.8647 298.063 19.6732 297.211 20.3315C296.368 20.9983 295.366 21.5047 294.214 21.8505C293.054 22.1976 291.781 22.3757 290.391 22.3757H279.053ZM274.888 40.6627H279.053V26.1603H289.599L300.305 40.6627H305.42L294.083 25.4138C295.542 25.1476 296.876 24.7209 298.099 24.1349C299.313 23.5489 300.375 22.8024 301.271 21.8955C302.168 20.9898 302.861 19.9224 303.354 18.6969C303.846 17.4703 304.092 16.0843 304.101 14.5379V14.4309C304.092 12.9569 303.846 11.588 303.354 10.3352C302.854 9.07262 302.16 7.9888 301.254 7.07336C300.085 5.89167 298.617 4.97683 296.842 4.32763C295.067 3.67965 293.036 3.3514 290.76 3.34229H274.889V40.6627H274.888Z" fill="black"/>
<path d="M320.131 26.9611L328.568 7.98115L336.952 26.9611H320.131ZM309.848 40.6636H314.12L318.496 30.8004H338.586L342.91 40.6636H347.393L330.57 3.07568H326.669L309.848 40.6636Z" fill="black"/>
<path d="M354.671 40.6627H358.73V10.4859L372.178 30.4263H372.389L385.835 10.4324V40.6627H390V3.34229H385.782L372.336 23.7082L358.89 3.34229H354.671V40.6627Z" fill="black"/>
<path d="M15.4307 41.2383C17.3859 41.2383 19.1648 40.9806 20.7773 40.4821C22.3807 39.974 23.781 39.2439 24.9521 38.2823C26.1233 37.3206 27.0305 36.145 27.6738 34.7743C28.3075 33.3932 28.6333 31.8256 28.6424 30.0719V29.9649C28.6424 28.4245 28.3959 27.0708 27.8938 25.9129C27.3918 24.747 26.6511 23.7403 25.6567 22.8857C24.6695 22.0298 23.428 21.2906 21.9569 20.6585C20.4779 20.0354 18.7602 19.4829 16.8051 19.0112C15.0345 18.5832 13.5724 18.1741 12.4186 17.773C11.2643 17.3724 10.3661 16.9529 9.71439 16.508C9.0723 16.0721 8.61297 15.5737 8.35805 15.0297C8.09352 14.4771 7.97027 13.8455 7.97929 13.1325V13.0255C7.97929 12.1982 8.22699 11.4493 8.69353 10.7825C9.16849 10.1145 9.85627 9.58806 10.7545 9.19659C11.6437 8.79601 12.7367 8.60088 14.004 8.59176C15.6958 8.59176 17.378 8.92183 19.0428 9.57103C20.716 10.2214 22.3807 11.1746 24.0461 12.4383L27.5331 7.46965C25.6664 5.93783 23.6397 4.77985 21.4386 3.97868C19.2358 3.1763 16.7961 2.77572 14.1099 2.7666C12.2689 2.77572 10.5783 3.03406 9.03683 3.55926C7.50494 4.08567 6.16604 4.82483 5.03816 5.78647C3.91089 6.74811 3.03853 7.88785 2.42168 9.21543C1.80544 10.5327 1.4892 12.0019 1.47898 13.6146V13.7215C1.47898 15.4308 1.75254 16.8915 2.29844 18.1036C2.83652 19.3145 3.63733 20.3296 4.68585 21.1666C5.73436 22.0037 7.01975 22.7167 8.54323 23.3039C10.0763 23.8911 11.8204 24.4175 13.7924 24.8886C15.5017 25.2892 16.9019 25.6813 17.9943 26.0818C19.0957 26.4824 19.941 26.9018 20.5488 27.3474C21.1482 27.7924 21.5703 28.2817 21.8078 28.8081C22.038 29.3418 22.1523 29.9387 22.1426 30.6068V30.7138C22.1336 31.6481 21.8703 32.4681 21.3412 33.1708C20.8032 33.8753 20.0552 34.4175 19.0771 34.8095C18.1001 35.2101 16.9374 35.4065 15.59 35.4156C14.084 35.4156 12.6567 35.2205 11.3262 34.8454C9.99636 34.4625 8.71938 33.9099 7.50433 33.1896C6.28026 32.4681 5.08145 31.5861 3.91029 30.5533L0 35.2545C2.22869 37.2593 4.64978 38.754 7.25723 39.7521C9.86349 40.7405 12.5942 41.2383 15.4307 41.2383Z" fill="black"/>
<path d="M53.4809 41.3442C55.771 41.335 57.8151 41.0682 59.5941 40.5254C61.3737 39.9905 62.9843 39.2251 64.42 38.2453C65.8641 37.2575 67.2217 36.0813 68.489 34.7191L64.3142 30.4445C63.2669 31.4427 62.219 32.3052 61.1614 33.0182C60.1045 33.7386 58.9676 34.2911 57.7616 34.6741C56.5543 35.057 55.1986 35.2527 53.692 35.2527C51.913 35.2442 50.2825 34.8971 48.7945 34.2115C47.3143 33.5349 46.0199 32.5818 44.9269 31.3697C43.8441 30.1595 42.9988 28.7608 42.391 27.1572C41.7916 25.5634 41.4928 23.8456 41.4832 22.0019V21.8949C41.4928 20.0513 41.8006 18.3335 42.4 16.7482C43.0078 15.1531 43.8531 13.755 44.9546 12.5533C46.0464 11.3424 47.3318 10.4069 48.821 9.73035C50.3011 9.0538 51.922 8.70609 53.692 8.69758C55.0928 8.69758 56.3956 8.89271 57.6023 9.28478C58.7999 9.66774 59.9277 10.2106 60.9853 10.906C62.0506 11.6001 63.0721 12.4116 64.0503 13.3459L68.2251 8.48362C67.0539 7.33415 65.7847 6.31902 64.4104 5.45585C63.036 4.58235 61.4771 3.89728 59.742 3.40795C57.9985 2.91801 55.9988 2.66757 53.7443 2.65967C51.4975 2.66818 49.4017 2.99764 47.455 3.64866C45.5173 4.29786 43.7551 5.21634 42.1878 6.40897C40.6198 7.5937 39.2725 8.99179 38.1542 10.6026C37.036 12.2062 36.1721 13.9781 35.5726 15.9111C34.9744 17.8344 34.6744 19.8647 34.666 22.0019V22.1089C34.6744 24.2638 34.9835 26.3026 35.5913 28.2362C36.1991 30.1595 37.0619 31.9229 38.1807 33.5161C39.308 35.1196 40.6469 36.4995 42.1968 37.6666C43.7557 38.8337 45.4818 39.7327 47.3847 40.3734C49.2887 41.0165 51.3142 41.3356 53.4809 41.3442Z" fill="black"/>
<path fill-rule="evenodd" clip-rule="evenodd" d="M81.8069 21.8428V9.28618H91.2664C92.8783 9.28618 94.2526 9.52689 95.3883 9.9992C96.5336 10.4794 97.4054 11.1748 98.0132 12.0921C98.6211 13.0179 98.9295 14.1485 98.9295 15.4846V15.5915C98.9198 16.8656 98.612 17.9695 97.9868 18.8959C97.3705 19.8302 96.4982 20.5517 95.3625 21.0684C94.2256 21.576 92.8783 21.8349 91.3187 21.8434H81.8069V21.8428ZM196.992 61.7904C177.251 74.3064 149.605 66.6649 131.133 58.1402C149.163 67.5062 177.673 77.0083 196.992 61.7904ZM210.682 25.3757C213.157 105.362 113.039 65.5574 89.945 27.6662H81.8069V40.7042H75.3066V3.30176H91.7949C94.1294 3.31088 96.1904 3.64034 97.988 4.28954C99.7844 4.93995 101.274 5.85721 102.471 7.04133C103.458 8.05647 104.206 9.2497 104.735 10.6131C105.263 11.9754 105.527 13.4707 105.536 15.1089V15.2159C105.527 17.265 105.148 19.0363 104.4 20.5505C103.66 22.0647 102.629 23.3108 101.316 24.3089C100.004 25.2967 98.49 26.0456 96.7633 26.5447C118.198 60.8926 208.922 95.4461 210.327 25.3532L210.682 25.3757Z" fill="black"/>
<path d="M120.385 3.30225H113.885V40.7047H120.385V3.30225Z" fill="black"/>
<path d="M136.767 22.751V9.28618H144.324C145.953 9.28618 147.362 9.5354 148.551 10.043C149.749 10.5505 150.665 11.2909 151.316 12.2872C151.968 13.2762 152.295 14.5053 152.303 15.966V16.073C152.295 17.3817 151.968 18.5391 151.326 19.5366C150.683 20.5347 149.767 21.3182 148.577 21.8878C147.389 22.4489 145.97 22.7425 144.324 22.751H136.767ZM130.266 40.7048H136.767V28.6819H144.112C146.165 28.6819 148.075 28.4072 149.855 27.8631C151.643 27.3197 153.21 26.5185 154.568 25.4408C155.915 24.3721 156.981 23.0361 157.747 21.4422C158.503 19.8569 158.901 18.0133 158.91 15.9119V15.8049C158.901 13.2756 158.328 11.0848 157.192 9.21506C156.056 7.34527 154.445 5.90159 152.348 4.86944C150.251 3.83546 147.759 3.31939 144.852 3.30176H130.266V40.7048Z" fill="black"/>
<path d="M174.66 40.7047H181.212V9.39305H192.946V3.30225H162.928V9.39305H174.66V40.7047Z" fill="black"/>
</svg>
