<?xml version="1.0" encoding="UTF-8"?>
<svg id="uuid-5bae3b34-87e3-4c10-9a0b-6167e5752071" data-name="Layer 2" xmlns="http://www.w3.org/2000/svg" viewBox="0 0 132 189.98">
  <g id="uuid-52e47611-dd68-497c-b1ff-43ff6ef5eba4" data-name="Layer 1">
    <ellipse cx="66" cy="181.48" rx="66" ry="8.5" style="fill: #d8d8d8; isolation: isolate; opacity: .4;"/>
    <path d="M119.68,62.12c-.11,4.69-.51,9.08-1.21,13.15,8.69,4.59,13.03,9.28,13.04,14.07,0,1.53-.56,2.96-1.67,4.28-1.51,2.04-3.43,3.06-5.76,3.06-3.03,0-6.42-1.62-10.16-4.89-1.42,3.27-4.86,9.03-10.31,17.28-4.15,6.33-6.77,12.45-7.88,18.36-.61,7.34,3.23,14.52,11.52,21.56-31.64-3.67-56.36-14.33-74.14-31.97-7.38-7.44-13.1-15.96-17.14-25.54-.1-.31-.2-.56-.3-.77-2.83,1.94-5.41,2.91-7.73,2.91s-4.3-.97-5.91-2.91c-1.01-1.43-1.52-2.85-1.52-4.28,0-4.29,3.79-8.67,11.37-13.16-.5-3.87-.75-7.65-.75-11.32,0-19.28,6.12-34.87,18.35-46.81C40.88,3.95,54.22-1.05,69.49,.18c15.17,1.12,27.24,6.62,36.24,16.51,9.9,10.91,14.56,26.05,13.95,45.43ZM31.53,36.88c0,3.24,1.16,6.02,3.46,8.34,2.3,2.31,5.07,3.46,8.32,3.46s6.26-1.15,8.56-3.46c2.31-2.31,3.46-5.09,3.46-8.34s-1.15-6.03-3.46-8.32c-2.3-2.32-5.16-3.48-8.56-3.48s-6.02,1.16-8.32,3.48c-2.3,2.29-3.46,5.08-3.46,8.32Zm30.64,48.43c-1.6,2.31-3.52,3.46-5.76,3.46s-4.17-1.15-5.77-3.46c-1.6-2.3-2.39-5.17-2.39-8.6,0-3.24,.79-6.02,2.39-8.34,1.59-2.31,3.52-3.46,5.77-3.46s4.16,1.15,5.76,3.46c1.59,2.31,2.39,5.1,2.39,8.34,0,3.42-.8,6.29-2.39,8.6Zm23.15-30.95c3.23,0,6-1.15,8.31-3.46,2.3-2.3,3.45-5.17,3.45-8.6,0-3.24-1.15-6.02-3.45-8.34-2.31-2.31-5.08-3.46-8.31-3.46s-6.02,1.15-8.32,3.46c-2.3,2.31-3.45,5.1-3.45,8.34,0,3.42,1.15,6.29,3.45,8.6,2.3,2.31,5.07,3.46,8.32,3.46Z" style="fill: #6c6368; fill-rule: evenodd;"/>
    <path d="M47.35,34.13c-1.26,0-2.33,.44-3.22,1.33-.89,.89-1.34,1.95-1.34,3.2,0,1.32,.45,2.42,1.34,3.3,.89,.89,1.97,1.33,3.22,1.33s2.33-.44,3.22-1.33c.89-.88,1.34-1.99,1.34-3.3,0-1.25-.45-2.31-1.34-3.2-.89-.89-1.97-1.33-3.22-1.33Z" style="fill: #6c6368;"/>
    <path d="M80.51,37.46c-1.26,0-2.33,.44-3.22,1.33-.89,.89-1.34,1.96-1.34,3.2,0,1.32,.45,2.42,1.34,3.3,.89,.89,1.97,1.33,3.22,1.33s2.33-.44,3.22-1.33c.89-.88,1.34-1.99,1.34-3.3,0-1.24-.44-2.31-1.34-3.2-.89-.89-1.97-1.33-3.22-1.33Z" style="fill: #6c6368;"/>
  </g>
</svg>