<svg id="Layer_1" data-name="Layer 1" xmlns="http://www.w3.org/2000/svg" viewBox="0 0 312 57">
  <path d="M167.33,18.76l-3.88.92L168.4,8Zm6,.92-3.87-.92L168.4,8Z" style="fill: #5a39a2;fill-rule: evenodd"/>
  <path d="M168.4,20.82l.52-.9.52-.9h-2.08l.52.9Z" style="fill: #5a39a2;fill-rule: evenodd"/>
  <path d="M156.84,32.39,168.38.17l-17,32.22Z" style="fill: #5a39a2;fill-rule: evenodd"/>
  <path d="M180,32.39,168.42.17l17,32.22Z" style="fill: #5a39a2;fill-rule: evenodd"/>
  <path d="M169.27,22.47h3.9l3.21,9.93H174l-2.46-7.61h-2.27C169.25,24,169.27,23.24,169.27,22.47Zm-5.63,0h3.85c-.05.77-.11,1.55-.19,2.32h-2l-2.46,7.6h-2.43Z" style="fill: #5a39a2;fill-rule: evenodd"/>
  <path d="M201.35,32.87a17.92,17.92,0,0,0,4.67-.63,18.11,18.11,0,0,0,4-1.63,17.18,17.18,0,0,0,3.18-2.26V16.57H201v3h9v7.34a12.13,12.13,0,0,1-2.35,1.5,14.44,14.44,0,0,1-2.9,1.06,14.08,14.08,0,0,1-3.27.4,12.48,12.48,0,0,1-4.85-.93,10.54,10.54,0,0,1-3.68-2.57,11.65,11.65,0,0,1-2.34-3.89,14.25,14.25,0,0,1-.81-4.89V17.5a13.34,13.34,0,0,1,.83-4.67A12,12,0,0,1,193,9,10.59,10.59,0,0,1,201,5.39a14.53,14.53,0,0,1,3.68.43A11,11,0,0,1,207.58,7,15.27,15.27,0,0,1,210,8.76l2.16-2.53a17.65,17.65,0,0,0-3.06-2.12,14,14,0,0,0-3.55-1.34,18.82,18.82,0,0,0-4.4-.46,14.94,14.94,0,0,0-4.95.81,14.21,14.21,0,0,0-4.09,2.23A14.6,14.6,0,0,0,189,8.71a15.56,15.56,0,0,0-2,4.18,16.24,16.24,0,0,0-.69,4.7v.08a16.86,16.86,0,0,0,.67,4.82A15,15,0,0,0,189,26.67a13.6,13.6,0,0,0,3.1,3.28,14.08,14.08,0,0,0,4.17,2.15A17,17,0,0,0,201.35,32.87Z" style="fill: #5a39a2"/>
  <path d="M223.24,17.88v-12h9.11a10.53,10.53,0,0,1,4.08.71,5.54,5.54,0,0,1,2.58,2,5.46,5.46,0,0,1,.9,3.12v.08a5.77,5.77,0,0,1-.57,2.56,5.41,5.41,0,0,1-1.57,1.9,7.33,7.33,0,0,1-2.4,1.21,10.94,10.94,0,0,1-3.06.41Zm-3.33,14.48h3.33V20.88h8.44l8.56,11.48h4.1l-9.07-12.07a12.56,12.56,0,0,0,3.21-1A9,9,0,0,0,241,17.5,7.62,7.62,0,0,0,242.68,15a8.77,8.77,0,0,0,.6-3.29v-.09a8.81,8.81,0,0,0-.6-3.24A7.44,7.44,0,0,0,241,5.77a9.44,9.44,0,0,0-3.53-2.18,14.57,14.57,0,0,0-4.86-.78h-12.7V32.36Z" style="fill: #5a39a2"/>
  <path d="M256.1,21.51l6.75-15,6.71,15Zm-8.22,10.85h3.42l3.5-7.81h16.07l3.46,7.81h3.58L264.46,2.6h-3.13Z" style="fill: #5a39a2"/>
  <path d="M283.74,32.36H287V8.47l10.76,15.79h.17L308.67,8.43V32.36H312V2.81h-3.37L297.87,18.94,287.11,2.81h-3.37Z" style="fill: #5a39a2"/>
  <path d="M12.34,32.81a14.37,14.37,0,0,0,4.28-.6A9.83,9.83,0,0,0,20,30.47a7.94,7.94,0,0,0,2.18-2.77A8.76,8.76,0,0,0,22.91,24v-.08a8,8,0,0,0-.59-3.21,6.63,6.63,0,0,0-1.79-2.39,11.38,11.38,0,0,0-3-1.77,27.3,27.3,0,0,0-4.13-1.3c-1.41-.34-2.58-.67-3.51-1a9.59,9.59,0,0,1-2.16-1,3,3,0,0,1-1.08-1.17,3.32,3.32,0,0,1-.31-1.51v-.08A3,3,0,0,1,7,8.7,3.87,3.87,0,0,1,8.6,7.45,6.52,6.52,0,0,1,11.2,7a11.17,11.17,0,0,1,4,.77,17,17,0,0,1,4,2.27L22,6.08a16.67,16.67,0,0,0-4.88-2.76,17.27,17.27,0,0,0-5.86-1A12.8,12.8,0,0,0,7.23,3,9.63,9.63,0,0,0,4,4.75,7.87,7.87,0,0,0,1.94,7.46,8.15,8.15,0,0,0,1.18,11V11a8.3,8.3,0,0,0,.66,3.47,6.34,6.34,0,0,0,1.91,2.42,11.7,11.7,0,0,0,3.08,1.7A34.87,34.87,0,0,0,11,19.87a30.45,30.45,0,0,1,3.37.95,7.89,7.89,0,0,1,2,1,3.07,3.07,0,0,1,1,1.15,3.47,3.47,0,0,1,.26,1.43v.08a3.11,3.11,0,0,1-.64,1.95,4.21,4.21,0,0,1-1.81,1.3,7.54,7.54,0,0,1-2.79.47,12.6,12.6,0,0,1-3.41-.45A13.26,13.26,0,0,1,6,26.44a18.65,18.65,0,0,1-2.87-2.09L0,28.08a18.67,18.67,0,0,0,5.81,3.56A18.5,18.5,0,0,0,12.34,32.81Z" style="fill: #5a39a2"/>
  <path d="M42.78,32.9a17.36,17.36,0,0,0,4.9-.65,14.1,14.1,0,0,0,3.86-1.8,19.77,19.77,0,0,0,3.25-2.8l-3.34-3.38a19.78,19.78,0,0,1-2.52,2,10.5,10.5,0,0,1-2.72,1.31,11,11,0,0,1-3.26.46A9.51,9.51,0,0,1,39,27.25,9.33,9.33,0,0,1,35.94,25a10.71,10.71,0,0,1-2-3.33,11.44,11.44,0,0,1-.72-4.08V17.5a11.28,11.28,0,0,1,.73-4.07,10.37,10.37,0,0,1,2-3.33,9.44,9.44,0,0,1,7-3,10.16,10.16,0,0,1,3.13.47A11,11,0,0,1,48.79,8.8a16.87,16.87,0,0,1,2.45,1.93l3.34-3.85a17.94,17.94,0,0,0-3-2.39,13.61,13.61,0,0,0-3.74-1.62A18.17,18.17,0,0,0,43,2.27a16.13,16.13,0,0,0-5,.79,14.51,14.51,0,0,0-4.21,2.18,15,15,0,0,0-3.23,3.32,15.2,15.2,0,0,0-2.06,4.2,16.32,16.32,0,0,0-.73,4.83v.08a16.4,16.4,0,0,0,.74,4.85,15.39,15.39,0,0,0,2.07,4.18A15,15,0,0,0,33.76,30a14.84,14.84,0,0,0,4.15,2.14A15.48,15.48,0,0,0,42.78,32.9Z" style="fill: #5a39a2"/>
  <path d="M65.45,17.46V7.52H73a8.76,8.76,0,0,1,3.3.56,4.51,4.51,0,0,1,2.1,1.66,4.72,4.72,0,0,1,.73,2.69v.08a4.56,4.56,0,0,1-.75,2.62,4.8,4.8,0,0,1-2.1,1.72,8.18,8.18,0,0,1-3.24.61Zm92.14,31.62c-15.79,9.91-37.91,3.86-52.68-2.89C119.33,53.61,142.14,61.13,157.59,49.08Zm11-28.82c2,63.32-78.12,31.81-96.59,1.81H65.45V32.39h-5.2V2.78H73.44a15,15,0,0,1,5,.78A9.77,9.77,0,0,1,82,5.74a8.37,8.37,0,0,1,1.81,2.83,9.93,9.93,0,0,1,.64,3.56v.08a9.45,9.45,0,0,1-.91,4.23,8.28,8.28,0,0,1-2.47,3,11.12,11.12,0,0,1-3.64,1.77c17.15,27.19,89.73,54.55,90.85-.94Z" style="fill: #5a39a2;fill-rule: evenodd"/>
  <path d="M96.31,2.78h-5.2V32.39h5.2Z" style="fill: #5a39a2"/>
  <path d="M109.41,18.18V7.52h6a8.69,8.69,0,0,1,3.38.6,4.72,4.72,0,0,1,2.21,1.77,5.19,5.19,0,0,1,.79,2.92v.08a4.94,4.94,0,0,1-.78,2.74,5.19,5.19,0,0,1-2.2,1.86,8,8,0,0,1-3.4.69Zm-5.2,14.21h5.2V22.87h5.88a15.77,15.77,0,0,0,4.59-.64,11.48,11.48,0,0,0,3.77-1.92,9,9,0,0,0,2.55-3.17,10.16,10.16,0,0,0,.93-4.38v-.08a9.86,9.86,0,0,0-1.38-5.22A9,9,0,0,0,121.88,4a13.66,13.66,0,0,0-6-1.24H104.21Z" style="fill: #5a39a2"/>
  <path d="M139.73,32.39H145V7.6h9.39V2.78h-24V7.6h9.39Z" style="fill: #5a39a2"/>
  <path d="M167.33,18.59l-3.88.93,5-11.66Zm6,.93-3.87-.93L168.4,7.86Z" style="fill: #355ba5;fill-rule: evenodd"/>
  <path d="M168.4,20.65l.52-.9.52-.9h-2.08l.52.9Z" style="fill: #355ba5;fill-rule: evenodd"/>
  <path d="M156.84,32.23,168.38,0l-17,32.23Z" style="fill: #355ba5;fill-rule: evenodd"/>
  <path d="M180,32.23,168.42,0l17,32.23Z" style="fill: #355ba5;fill-rule: evenodd"/>
  <path d="M169.27,22.3h3.9l3.21,9.93H174l-2.46-7.61h-2.27C169.25,23.84,169.27,23.07,169.27,22.3Zm-5.63,0h3.85c-.05.78-.11,1.55-.19,2.32h-2l-2.46,7.6h-2.43Z" style="fill: #355ba5;fill-rule: evenodd"/>
  <path d="M201.35,32.7a17.92,17.92,0,0,0,4.67-.63,18.11,18.11,0,0,0,4-1.63,17.18,17.18,0,0,0,3.18-2.26V16.4H201v3h9v7.35a13.16,13.16,0,0,1-2.35,1.5,14.43,14.43,0,0,1-2.9,1.05,14.08,14.08,0,0,1-3.27.4,12.48,12.48,0,0,1-4.85-.93,10.64,10.64,0,0,1-3.68-2.56,11.85,11.85,0,0,1-2.34-3.89,14.35,14.35,0,0,1-.81-4.9v-.08a13.35,13.35,0,0,1,.83-4.68A12.14,12.14,0,0,1,193,8.81,10.59,10.59,0,0,1,201,5.22a14.5,14.5,0,0,1,3.68.44,11,11,0,0,1,2.89,1.18A15.33,15.33,0,0,1,210,8.6l2.16-2.53a17.71,17.71,0,0,0-3.06-2.13,14.43,14.43,0,0,0-3.55-1.34,18.82,18.82,0,0,0-4.4-.46,15.2,15.2,0,0,0-4.95.81,14,14,0,0,0-4.09,2.24A14.35,14.35,0,0,0,189,8.54a15.56,15.56,0,0,0-2,4.18,16.34,16.34,0,0,0-.69,4.7v.08a16.86,16.86,0,0,0,.67,4.82A14.82,14.82,0,0,0,189,26.5a13.42,13.42,0,0,0,3.1,3.28,13.85,13.85,0,0,0,4.17,2.15A16.73,16.73,0,0,0,201.35,32.7Z" style="fill: #355ba5"/>
  <path d="M223.24,17.71v-12h9.11a10.73,10.73,0,0,1,4.08.7,5.6,5.6,0,0,1,2.58,2,5.46,5.46,0,0,1,.9,3.12v.09a5.69,5.69,0,0,1-.57,2.55,5.53,5.53,0,0,1-1.57,1.91,7.51,7.51,0,0,1-2.4,1.2,10.94,10.94,0,0,1-3.06.41Zm-3.33,14.48h3.33V20.71h8.44l8.56,11.48h4.1l-9.07-12.07a13,13,0,0,0,3.21-1A9.27,9.27,0,0,0,241,17.33a7.52,7.52,0,0,0,1.66-2.53,8.77,8.77,0,0,0,.6-3.29v-.08a8.82,8.82,0,0,0-.6-3.25A7.44,7.44,0,0,0,241,5.6a9.29,9.29,0,0,0-3.53-2.17,14.08,14.08,0,0,0-4.86-.78h-12.7V32.19Z" style="fill: #355ba5"/>
  <path d="M256.1,21.34l6.75-15,6.71,15Zm-8.22,10.85h3.42l3.5-7.81h16.07l3.46,7.81h3.58L264.46,2.43h-3.13Z" style="fill: #355ba5"/>
  <path d="M283.74,32.19H287V8.3l10.76,15.79h.17L308.67,8.26V32.19H312V2.65h-3.37L297.87,18.77,287.11,2.65h-3.37Z" style="fill: #355ba5"/>
  <path d="M12.34,32.65a14.7,14.7,0,0,0,4.28-.6A10,10,0,0,0,20,30.31a8,8,0,0,0,2.18-2.78,8.68,8.68,0,0,0,.77-3.72v-.09a8,8,0,0,0-.59-3.21,6.63,6.63,0,0,0-1.79-2.39,11.38,11.38,0,0,0-3-1.77,27.3,27.3,0,0,0-4.13-1.3c-1.41-.34-2.58-.66-3.51-1a9.59,9.59,0,0,1-2.16-1A3,3,0,0,1,6.69,11.9a3.3,3.3,0,0,1-.31-1.5v-.09A3,3,0,0,1,7,8.54,3.89,3.89,0,0,1,8.6,7.28a6.52,6.52,0,0,1,2.6-.48,11,11,0,0,1,4,.78,16.65,16.65,0,0,1,4,2.27L22,5.91a16.67,16.67,0,0,0-4.88-2.76,17.27,17.27,0,0,0-5.86-1,12.8,12.8,0,0,0-4.06.63A9.63,9.63,0,0,0,4,4.58,7.87,7.87,0,0,0,1.94,7.29a8.15,8.15,0,0,0-.76,3.49v.08a8.26,8.26,0,0,0,.66,3.47,6.44,6.44,0,0,0,1.91,2.43,12,12,0,0,0,3.08,1.69A34.87,34.87,0,0,0,11,19.7a30.45,30.45,0,0,1,3.37.95,8.23,8.23,0,0,1,2,1,3,3,0,0,1,1,1.16,3.39,3.39,0,0,1,.26,1.42v.09a3.1,3.1,0,0,1-.64,1.94,4.13,4.13,0,0,1-1.81,1.3,7.53,7.53,0,0,1-2.79.48,13,13,0,0,1-3.41-.45A13.29,13.29,0,0,1,6,26.27a18.57,18.57,0,0,1-2.87-2.08L0,27.91a18.23,18.23,0,0,0,12.34,4.74Z" style="fill: #355ba5"/>
  <path d="M42.78,32.73a17.36,17.36,0,0,0,4.9-.65,14.1,14.1,0,0,0,3.86-1.8,19.7,19.7,0,0,0,3.25-2.79L51.45,24.1a19.78,19.78,0,0,1-2.52,2,10.5,10.5,0,0,1-2.72,1.31,11,11,0,0,1-3.26.46,9.42,9.42,0,0,1-7-3.08,10.6,10.6,0,0,1-2-3.33,11.37,11.37,0,0,1-.72-4.08v-.09a11.28,11.28,0,0,1,.73-4.07,10.33,10.33,0,0,1,2-3.32,9.34,9.34,0,0,1,7-3,10.17,10.17,0,0,1,3.13.46,11,11,0,0,1,2.71,1.28,17,17,0,0,1,2.45,1.94l3.34-3.85a18,18,0,0,0-3-2.4A14.24,14.24,0,0,0,47.79,2.7,17.79,17.79,0,0,0,43,2.11a15.84,15.84,0,0,0-5,.78,14.51,14.51,0,0,0-4.21,2.18,15,15,0,0,0-3.23,3.32,15.26,15.26,0,0,0-2.06,4.21,16.25,16.25,0,0,0-.73,4.82v.08a16.4,16.4,0,0,0,.74,4.85,15.25,15.25,0,0,0,2.07,4.18,14.79,14.79,0,0,0,3.22,3.29A14.58,14.58,0,0,0,37.91,32,15.48,15.48,0,0,0,42.78,32.73Z" style="fill: #355ba5"/>
  <path d="M65.45,17.29V7.35H73a8.56,8.56,0,0,1,3.3.57,4.55,4.55,0,0,1,2.1,1.65,4.75,4.75,0,0,1,.73,2.69v.08A4.54,4.54,0,0,1,78.39,15a4.8,4.8,0,0,1-2.1,1.72,8,8,0,0,1-3.24.61Zm92.14,31.63c-15.79,9.91-37.91,3.86-52.68-2.89C119.33,53.44,142.14,61,157.59,48.92Zm11-28.83c2,63.32-78.12,31.81-96.59,1.81H65.45V32.22h-5.2V2.61H73.44a14.77,14.77,0,0,1,5,.79A9.75,9.75,0,0,1,82,5.57,8.47,8.47,0,0,1,83.79,8.4,9.93,9.93,0,0,1,84.43,12v.09a9.44,9.44,0,0,1-.91,4.22,8.11,8.11,0,0,1-2.47,3A10.92,10.92,0,0,1,77.41,21c17.15,27.2,89.73,54.55,90.85-.94Z" style="fill: #355ba5;fill-rule: evenodd"/>
  <path d="M96.31,2.61h-5.2V32.23h5.2Z" style="fill: #355ba5"/>
  <path d="M109.41,18V7.35h6a8.69,8.69,0,0,1,3.38.6,4.74,4.74,0,0,1,2.21,1.78,5.14,5.14,0,0,1,.79,2.91v.09a5,5,0,0,1-.78,2.74,5.19,5.19,0,0,1-2.2,1.86,8,8,0,0,1-3.4.68Zm-5.2,14.22h5.2V22.71h5.88a15.76,15.76,0,0,0,4.59-.65,11.29,11.29,0,0,0,3.77-1.92A8.94,8.94,0,0,0,126.2,17a10.23,10.23,0,0,0,.93-4.38v-.09a9.89,9.89,0,0,0-1.38-5.22,9.09,9.09,0,0,0-3.87-3.44,14,14,0,0,0-6-1.24H104.21Z" style="fill: #355ba5"/>
  <path d="M139.73,32.23H145V7.44h9.39V2.61h-24V7.44h9.39Z" style="fill: #355ba5"/>
</svg>
