<svg id="Layer_1" data-name="Layer 1" xmlns="http://www.w3.org/2000/svg" viewBox="0 0 723.7 151.76">
  <path d="M701.47,22.22a75.88,75.88,0,1,1-107.31,0,75.88,75.88,0,0,1,107.31,0Z" transform="translate(0 0)" style="fill: #ededef"/>
  <path d="M664.72,42c-6,0-11.52,5.46-14.39,10.13a3,3,0,0,1-5,0C642.44,47.42,637,42,630.92,42a16.88,16.88,0,0,0-16,22.2v0a16.85,16.85,0,0,0,4.94,7.4l.15.14,18.86,18.86a2.92,2.92,0,0,1,.37.24l8.61,8.61,8.35-8.34c6.62-6.71,15.33-15.46,19.59-19.43a17.52,17.52,0,0,0,5.88-12.79A17,17,0,0,0,664.72,42Z" transform="translate(0 0)" style="fill: #2bb39d"/>
  <path d="M6.47,44.39c.38-3.29,2.15-5.06,5.44-5.06h8a5.72,5.72,0,0,1,5.94,4.3L41.88,83.72c2,5.31,4.55,13.15,4.55,13.15h.25s2.4-7.84,4.43-13.15L67.17,43.63a5.78,5.78,0,0,1,6.07-4.3h7.84c3.29,0,5.19,1.77,5.44,5.06L93,123.69c.25,3.41-1.52,5.44-5.06,5.44H82.22c-3.29,0-5.19-1.77-5.44-5.06L73.37,78.92C73,73,73.24,65,73.24,65H73s-2.78,8.73-4.81,13.91l-13,30.6a5.75,5.75,0,0,1-5.94,4.17H43.9a5.81,5.81,0,0,1-6.07-4.17l-12.9-30.6c-2-5.19-4.93-14-4.93-14h-.25s.25,8.09-.13,14l-3.41,45.15c-.25,3.29-2,5.06-5.44,5.06H5.08c-3.54,0-5.31-2-5.06-5.44l6.45-79.3Z" transform="translate(0 0)" style="fill: #987bb5"/>
  <path d="M139.76,89.29h2.66V87.77c0-8.47-5.44-11.38-12-11.38A29.09,29.09,0,0,0,117,80.06c-3.16,1.39-5.57.89-7.08-2.15l-1.26-2.4c-1.52-2.91-1-5.44,2-7.08a45.77,45.77,0,0,1,21.12-5.31c16.69,0,26.69,9.36,26.69,25.67v35q0,5.31-5.31,5.31h-4.3c-3.41,0-5.19-1.77-5.19-5.31v-2.53a12.75,12.75,0,0,1,.25-2.78h-.25s-6.07,12.14-20.24,12.14c-11.76,0-21.37-7.59-21.37-19.35,0-18.85,23.27-22,37.69-22Zm-12,29.08c9,0,14.8-9.11,14.8-17V99h-2.66C131.79,99,118,100.29,118,109.9,118,114.2,121.29,118.37,127.74,118.37Z" transform="translate(0 0)" style="fill: #987bb5"/>
  <path d="M171.53,69.94c0-3.42,1.77-5.31,5.19-5.31h4.93c3.42,0,5.31,1.9,5.31,5.31V76a27,27,0,0,1-.38,4.43h.25c2.53-7.72,9.61-16.32,18.72-16.32,3.54,0,4.81,1.77,4.81,5.31v4.93c0,3.42-2,5.31-5.44,5.31-11.76,0-17.45,11.64-17.45,23.4v20.74c0,3.54-1.77,5.31-5.19,5.31h-5.56c-3.41,0-5.19-1.77-5.19-5.31V69.94Z" transform="translate(0 0)" style="fill: #987bb5"/>
  <path d="M218.08,69.94c0-3.42,1.77-5.31,5.19-5.31h5.56c3.42,0,5.19,1.9,5.19,5.31v53.88c0,3.54-1.77,5.31-5.19,5.31h-5.56c-3.42,0-5.19-1.77-5.19-5.31Z" transform="translate(0 0)" style="fill: #987bb5"/>
  <path d="M246.56,53.46l4.12-18.19c.61-3,2.3-4.49,5.46-4.49h3.4c3.76,0,5.33,2.18,4.24,5.7L257.6,54.91a5.52,5.52,0,0,1-5.7,4h-1.21c-3.65,0-4.86-2-4.13-5.45Z" transform="translate(0 0)" style="fill: #987bb5"/>
  <path d="M259.34,116.86l1.52-2.28c1.9-2.66,4.05-2.91,7.21-1.27s7.84,4.43,14.42,4.43c5.57,0,9-2.53,9-6.58,0-10.5-32-6.58-32-28.71,0-12.65,11.13-19.35,24.66-19.35a35.92,35.92,0,0,1,18,4.68C305,69.3,305.38,72,304,74.86l-1.26,2.28c-1.52,3-3.92,3.42-7.08,2A28.8,28.8,0,0,0,283.38,76c-5.56,0-8.73,2.28-8.73,6.32,0,10.62,32,6.45,32,28.46,0,11.38-9.61,19.86-24.54,19.86a37.69,37.69,0,0,1-21.5-6.58C257.69,122.42,257.44,119.64,259.34,116.86Z" transform="translate(0 0)" style="fill: #987bb5"/>
  <path d="M342.13,44.64c0-3.42,1.77-5.31,5.19-5.31h5.82c3.41,0,5.19,1.9,5.19,5.31v70.44h33.52c3.54,0,5.31,1.77,5.31,5.19v3.54q0,5.31-5.31,5.31H347.33c-3.41,0-5.19-1.77-5.19-5.31Z" transform="translate(0 0)" style="fill: #987bb5"/>
  <path d="M403.63,69.94c0-3.42,1.77-5.31,5.19-5.31h5.57c3.41,0,5.19,1.9,5.19,5.31v53.88c0,3.54-1.77,5.31-5.19,5.31h-5.57c-3.41,0-5.19-1.77-5.19-5.31Z" transform="translate(0 0)" style="fill: #987bb5"/>
  <path d="M430.47,116.86l1.52-2.28c1.9-2.66,4.05-2.91,7.21-1.27s7.84,4.43,14.42,4.43c5.57,0,9-2.53,9-6.58,0-10.5-32-6.58-32-28.71,0-12.65,11.13-19.35,24.66-19.35a35.92,35.92,0,0,1,18,4.68c2.91,1.52,3.29,4.17,1.9,7.08l-1.26,2.28c-1.52,3-3.92,3.41-7.08,2A28.8,28.8,0,0,0,454.51,76c-5.57,0-8.73,2.28-8.73,6.32,0,10.62,32,6.45,32,28.46,0,11.38-9.61,19.86-24.54,19.86a37.69,37.69,0,0,1-21.5-6.58C428.83,122.42,428.57,119.64,430.47,116.86Z" transform="translate(0 0)" style="fill: #987bb5"/>
  <path d="M490.56,78.28h-3.41c-3.42,0-5.19-1.77-5.19-5.31V70.82c0-3.42,1.77-5.31,5.31-5.31h3.67V52.36c0-3.41,1.9-5.31,5.31-5.31h5.06c3.41,0,5.31,1.9,5.31,5.31V65.51H516c3.41,0,5.31,1.9,5.31,5.31V73c0,3.54-1.9,5.31-5.19,5.31h-9.49v25c0,9.61,5.94,11.51,10.37,12,3.92.38,5.31,1.64,5.31,5.19v3.92c0,3.79-2.15,5.31-6.58,5.31-11.51,0-25.17-6.2-25.17-23.65V78.28Z" transform="translate(0 0)" style="fill: #987bb5"/>
  <path d="M234.49,46.48A8.44,8.44,0,1,1,226.05,38,8.44,8.44,0,0,1,234.49,46.48Z" transform="translate(0 0)" style="fill: #987bb5"/>
  <path d="M420,46.48A8.44,8.44,0,1,1,411.6,38,8.44,8.44,0,0,1,420,46.48Z" transform="translate(0 0)" style="fill: #987bb5"/>
  <path d="M542.91,110.48A10.22,10.22,0,1,1,533,120.69,10.08,10.08,0,0,1,542.91,110.48Zm0,18.92a8.72,8.72,0,1,0-8.29-8.72A8.43,8.43,0,0,0,542.91,129.4Zm-3.34-13.49a.61.61,0,0,1,.67-.7h3.23a3.1,3.1,0,0,1,3.29,3.26,2.88,2.88,0,0,1-2,2.9v0a5.2,5.2,0,0,1,.37.62l1.72,3.32c.25.48.06.81-.45.81H546a.78.78,0,0,1-.79-.51l-2-3.93h-2.08v3.74a.61.61,0,0,1-.67.7h-.25a.61.61,0,0,1-.67-.7v-9.56Zm3.62,4.58a1.84,1.84,0,0,0,1.94-2,1.78,1.78,0,0,0-1.91-1.94h-2.05v4Z" transform="translate(0 0)" style="fill: #987bb5"/>
  <path d="M664.72,42c-6,0-11.52,5.46-14.39,10.13a3,3,0,0,1-5,0C642.44,47.42,637,42,630.92,42a16.88,16.88,0,0,0-16,22.2v0a16.85,16.85,0,0,0,4.94,7.4l.15.14,18.86,18.86a2.92,2.92,0,0,1,.37.24l8.61,8.61,8.35-8.34c6.62-6.71,15.33-15.46,19.59-19.43a17.52,17.52,0,0,0,5.88-12.79A17,17,0,0,0,664.72,42Z" transform="translate(0 0)" style="fill: #987bb5"/>
  <path d="M663,38.8c-7,0-12.27,4.65-15.13,7.94-2.86-3.29-8.15-7.94-15.14-7.94A21.3,21.3,0,0,0,611.4,60.08a20.72,20.72,0,0,0,.67,5.17,4.12,4.12,0,0,0,.12.59l15.94,51.64a3.51,3.51,0,0,0,2.51,2.37,3.55,3.55,0,0,0,3.33-.93l13.82-13.82,13.82,13.82a3.53,3.53,0,0,0,2.49,1,3.58,3.58,0,0,0,.85-.1,3.55,3.55,0,0,0,2.51-2.37l15.95-51.64a2.29,2.29,0,0,0,.09-.42,20.52,20.52,0,0,0,.74-5.35A21.31,21.31,0,0,0,663,38.8Zm9.28,32.1c-3.82,3.57-11.67,11.45-17.57,17.43l-6.85,6.85-7.09-7.09a.79.79,0,0,0-.32-.22L623.51,71l-.17-.16a14.24,14.24,0,0,1,9.36-25c5,0,9.69,4.66,12.14,8.65a3.51,3.51,0,0,0,6,0c2.45-4,7.1-8.65,12.14-8.65a14.28,14.28,0,0,1,14.26,14.26,14.8,14.8,0,0,1-5,10.81Z" transform="translate(0 0)" style="fill: #4fc2ce"/>
</svg>
