<svg width="203" height="57" viewBox="0 0 203 57" fill="none" xmlns="http://www.w3.org/2000/svg">
<g clip-path="url(#clip0_727_7342)">
<path d="M12.6653 28.4984C12.6653 20.5411 15.6032 12.5807 23.2735 12.5807C30.9439 12.5807 33.8753 20.5411 33.8753 28.4984C33.8753 36.4556 30.9439 44.4128 23.2735 44.4128C15.6032 44.4128 12.6653 36.4523 12.6653 28.4984ZM0.835938 28.4984C0.835938 44.032 8.91438 56.4967 23.2735 56.4967C37.6327 56.4967 45.7111 44.032 45.7111 28.4984C45.7111 12.9647 37.6327 0.5 23.2735 0.5C8.91438 0.5 0.835938 12.9549 0.835938 28.4984" fill="#00467F"/>
<path d="M49.6208 17.4038H60.1513V24.274H60.2776C61.8713 19.2947 65.5736 16.6553 70.2283 16.6553C71.0575 16.6553 71.9483 16.7301 72.7807 16.9579V28.6481C71.3782 28.1924 70.0987 27.8898 68.6346 27.8898C63.2738 27.8898 60.4687 32.2638 60.4687 37.1423V56.5H49.6176V17.4038H49.6208Z" fill="#00467F"/>
<path d="M76.658 17.7586H87.0977V23.148H87.2241C89.1773 19.2524 92.6497 16.7074 96.6273 16.7074C100.605 16.7074 104.408 18.2793 106.183 22.9951C108.768 18.8749 111.987 16.7074 116.402 16.7074C126.839 16.7074 127.973 26.0673 127.973 33.442V56.4968H117.219V33.813C117.219 29.644 115.515 27.1934 112.739 27.1934C108.136 27.1934 107.699 31.3591 107.699 37.611V56.4968H96.9415V34.555C96.9415 30.015 95.8046 27.1934 92.9023 27.1934C89.0574 27.1934 87.4152 29.797 87.4152 37.6175V56.4968H76.658V17.7586Z" fill="#00467F"/>
<path d="M153.442 31.7204C153.384 28.57 150.987 26.3505 148.353 26.3505C142.533 26.3505 141.613 32.15 141.613 37.3083C141.613 42.1087 143.388 47.049 147.803 47.049C151.421 47.049 153.254 44.6146 153.75 40.6767H163.859C162.933 50.6875 156.318 56.5 147.864 56.5C138.306 56.5 131.189 48.7218 131.189 37.3083C131.189 25.8948 137.629 16.9092 147.864 16.9092C155.765 16.9092 162.81 21.8462 163.548 31.7204H153.442Z" fill="#00467F"/>
<path d="M176.719 36.7387C176.719 32.01 178.196 26.3504 183.038 26.3504C187.881 26.3504 189.432 32.01 189.432 36.7387C189.432 41.4675 187.89 47.049 183.038 47.049C178.186 47.049 176.719 41.461 176.719 36.7387ZM166.282 36.7387C166.282 47.9212 173.152 56.4967 183.038 56.4967C192.924 56.4967 199.853 47.9212 199.853 36.7387C199.853 25.5563 192.924 16.9059 183.038 16.9059C173.152 16.9059 166.282 25.5498 166.282 36.7387Z" fill="#00467F"/>
<path d="M197.342 17.3811V20.9285H196.805V17.3811H195.606V16.9092H198.538V17.3811H197.342Z" fill="#00467F"/>
<path d="M202.836 16.9124V20.9284H202.308L202.382 17.56L201.119 20.9284H200.708L199.467 17.6153L199.526 20.9284H199.004V16.9124H199.691L200.918 20.2092L202.152 16.9124H202.836Z" fill="#00467F"/>
</g>
<defs>
<clipPath id="clip0_727_7342">
<rect width="202" height="56" fill="white" transform="translate(0.835938 0.5)"/>
</clipPath>
</defs>
</svg>
