<svg width="88" height="85" viewBox="0 0 88 85" fill="none" xmlns="http://www.w3.org/2000/svg">
<path d="M85.4142 43.9636L85.4141 43.9636L85.4151 43.9712L86.9863 55.8015C87.1063 56.8489 86.4374 57.7775 85.4371 58.0342C82.7868 58.613 80.053 58.9672 77.2014 59.3064L75.7016 54.8069L75.6957 54.7894L75.6892 54.772C74.4422 51.4467 71.3109 49.1288 67.7237 49.1288C65.8221 49.1288 64.1428 49.7665 62.7031 50.7949L62.693 50.802L62.6832 50.8094L52.1884 58.7029C50.9036 58.5261 49.679 58.2819 48.4227 58.0307C47.3714 57.7762 46.7625 56.8749 46.8896 55.7949L46.8896 55.7945L48.277 43.9559L48.2773 43.9527C49.0517 37.1555 54.9097 31.9836 61.712 31.9836H71.8857C78.7793 31.9836 84.5517 37.0638 85.4142 43.9636Z" stroke="black" stroke-width="2"/>
<path d="M79.5788 13.6883C79.5788 20.6959 73.898 26.3766 66.8905 26.3766C59.8829 26.3766 54.2021 20.6959 54.2021 13.6883C54.2021 6.68075 59.8829 1 66.8905 1C73.898 1 79.5788 6.68075 79.5788 13.6883Z" stroke="black" stroke-width="2"/>
<path d="M26.1035 54.8284C32.9958 54.8284 38.7672 59.9066 39.6314 66.8044C39.6316 66.8057 39.6317 66.807 39.6319 66.8083L41.0183 78.6392L41.0183 78.6397C41.1419 79.6898 40.4723 80.6218 39.4698 80.879C33.6309 82.1549 27.4191 82.7947 21.0166 82.7947C14.5222 82.7947 8.4026 82.155 2.56338 80.879C1.56091 80.6218 0.891297 79.6898 1.01484 78.6397L1.0149 78.6392L2.40168 66.8053C3.26617 59.9938 9.04285 54.8284 15.9297 54.8284H26.1035Z" stroke="black" stroke-width="2"/>
<path d="M33.7057 36.533C33.7057 43.5406 28.025 49.2213 21.0174 49.2213C14.0099 49.2213 8.3291 43.5406 8.3291 36.533C8.3291 29.5255 14.0099 23.8447 21.0174 23.8447C28.025 23.8447 33.7057 29.5255 33.7057 36.533Z" stroke="black" stroke-width="2"/>
<path d="M68.433 57.2672L68.4375 57.2819L68.4425 57.2965L73.4369 71.9097L73.4416 71.9236L73.4468 71.9374C73.6929 72.5936 73.0998 73.2649 72.3692 73.0365L72.365 73.0352L68.758 71.9254L67.8548 71.6475L67.5262 72.5335C64.705 80.1422 56.936 84.5828 48.9651 83.4421C53.5785 80.2837 57.1794 75.7654 59.1415 70.1594L59.4822 69.186L58.4988 68.8754L54.9842 67.7656L54.9813 67.7647C54.3299 67.5611 54.1324 66.6517 54.7346 66.1847L67.1154 56.8529C67.6014 56.5052 68.274 56.7506 68.433 57.2672Z" stroke="black" stroke-width="2"/>
</svg>
