<svg width="89" height="88" viewBox="0 0 89 88" fill="none" xmlns="http://www.w3.org/2000/svg">
<path d="M10.735 85.6596C11.0118 85.9333 11.387 86.087 11.7784 86.087C12.1697 86.087 12.545 85.9333 12.8217 85.6596L29.1005 69.5606C29.3772 69.2869 29.5326 68.9157 29.5326 68.5287C29.5326 68.1417 29.3772 67.7705 29.1005 67.4969L28.0571 66.4649L32.3945 62.067C39.2184 67.2756 47.7902 69.722 56.371 68.9099C64.9518 68.0979 72.8989 64.0882 78.6002 57.6943C84.3014 51.3004 87.3299 43.0011 87.0712 34.4801C86.8125 25.9591 83.2859 17.8545 77.207 11.8105C71.1281 5.7664 62.952 2.23551 54.3374 1.9341C45.7229 1.63269 37.3149 4.58333 30.8193 10.1874C24.3237 15.7915 20.2268 23.6294 19.3599 32.111C18.4929 40.5927 20.9207 49.0828 26.1509 55.8592L21.797 60.2739L20.7536 59.2421C20.4769 58.9685 20.1016 58.8147 19.7103 58.8147C19.3189 58.8147 18.9436 58.9685 18.6669 59.2421L2.3882 75.3413C2.1115 75.6149 1.95605 75.9861 1.95605 76.3731C1.95605 76.7601 2.1115 77.1312 2.3882 77.4049L10.735 85.6596ZM34.3172 16.9367C38.0316 13.2633 42.7641 10.7617 47.9161 9.74817C53.0681 8.73467 58.4084 9.25483 63.2615 11.2429C68.1146 13.2309 72.2626 16.5975 75.181 20.917C78.0994 25.2365 79.6571 30.3148 79.6571 35.5098C79.6571 40.7048 78.0994 45.7832 75.181 50.1026C72.2626 54.4221 68.1146 57.7888 63.2615 59.7768C58.4084 61.7648 53.0681 62.285 47.9161 61.2715C42.7641 60.258 38.0316 57.7564 34.3172 54.0829C31.8509 51.6439 29.8946 48.7483 28.5598 45.5615C27.2251 42.3748 26.5381 38.9592 26.5381 35.5098C26.5381 32.0605 27.2251 28.6449 28.5598 25.4581C29.8946 22.2714 31.8509 19.3758 34.3172 16.9367V16.9367Z" stroke="black" stroke-width="2"/>
<path d="M51.5761 54.5216H54.6848C55.9215 54.5216 57.1076 54.1185 57.9821 53.401C58.8566 52.6835 59.3479 51.7103 59.3479 50.6956H46.9131C46.9131 51.7103 47.4044 52.6835 48.2789 53.401C49.1534 54.1185 50.3394 54.5216 51.5761 54.5216Z" stroke="#333333" stroke-width="2" stroke-linecap="round" stroke-linejoin="round"/>
<path d="M53.6084 15.3044V20.0871" stroke="#333333" stroke-width="2" stroke-linecap="round"/>
<path d="M71.7821 36.3479H67.9561" stroke="#333333" stroke-width="2" stroke-linecap="round"/>
<path d="M38.3046 36.3479H34.4785" stroke="#333333" stroke-width="2" stroke-linecap="round"/>
<path d="M38.6367 21.9836L41.7487 25.0956" stroke="#333333" stroke-width="2" stroke-linecap="round"/>
<path d="M67.6842 21.984L64.5723 25.0959" stroke="#333333" stroke-width="2" stroke-linecap="round"/>
<path d="M56.1188 47.8261H59.0707C59.0907 47.8261 59.1068 47.8099 59.1068 47.7899V47.7899C59.1019 47.1009 59.2492 46.419 59.5386 45.7909C59.828 45.1627 60.2526 44.6033 60.7834 44.1509C62.1374 43.0136 63.2231 41.6021 63.9654 40.0138C64.7077 38.4256 65.089 36.6984 65.0829 34.9518C65.1634 31.9036 64.0246 28.9453 61.9094 26.7074C59.7941 24.4695 56.8697 23.1292 53.7596 22.9721C50.6495 22.815 47.5997 23.8536 45.2605 25.8665C42.9213 27.8795 41.4777 30.7074 41.2375 33.7475C41.0363 35.6808 41.3137 37.6332 42.0463 39.4393C42.7788 41.2455 43.945 42.8523 45.446 44.1238C45.9833 44.5787 46.414 45.1417 46.7089 45.7744C47.0038 46.4071 47.1559 47.0946 47.1548 47.79V47.79C47.1548 47.81 47.1709 47.8261 47.1908 47.8261H52.1308C52.6831 47.8261 53.1308 47.3784 53.1308 46.8261V44.5509C53.1308 44.3051 53.0402 44.0678 52.8764 43.8845L48.1556 38.6025C47.9918 38.4192 47.9012 38.182 47.9012 37.9361V35.5811C47.9012 35.3418 47.987 35.1105 48.143 34.9291L50.1157 32.635C50.5199 32.1649 51.2501 32.1722 51.6449 32.6501L53.0185 34.3131C53.4084 34.7851 54.1271 34.7991 54.5351 34.3426L56.0621 32.6341C56.4794 32.1671 57.2184 32.1943 57.6003 32.6907L59.3312 34.9406C59.4657 35.1155 59.5386 35.3298 59.5386 35.5504V37.768C59.5386 38.1104 59.3634 38.429 59.0743 38.6124L56.8653 40.0138" stroke="black" stroke-width="2" stroke-linecap="round" stroke-linejoin="round"/>
</svg>
