<svg width="85" height="86" viewBox="0 0 85 86" fill="none" xmlns="http://www.w3.org/2000/svg">
<path fill-rule="evenodd" clip-rule="evenodd" d="M54.5411 34.9681C55.9493 35.3583 57.193 36.123 58.1592 37.2623C59.3721 38.6878 59.9786 40.5294 59.9991 42.3919C59.9991 42.5688 59.9991 42.7456 59.994 42.9225V42.9329L55.1527 42.7457V42.6936C55.1578 42.6104 55.163 42.5324 55.1578 42.4491C55.1527 41.7416 54.9471 41.0029 54.4846 40.4514C53.9655 39.8479 53.1997 39.6086 52.4288 39.5722C52.326 39.567 52.2233 39.5618 52.1205 39.567C51.3496 39.5722 50.5992 39.7959 50.0287 40.3474C49.6741 40.6855 49.4274 41.1277 49.2938 41.6011C49.1756 42.0277 49.155 42.4959 49.2681 42.9277C49.3606 43.2763 49.5508 43.5884 49.8489 43.7913L53.1997 45.659L56.6791 47.5267L56.7665 47.5787C58.2003 48.4475 59.2025 49.7897 59.6394 51.4232C59.9837 52.703 59.9529 54.0817 59.5983 55.3563C59.2334 56.6829 58.519 57.8898 57.5374 58.8419C56.6842 59.669 55.6615 60.2621 54.5411 60.6055V64.2055H49.6844V60.6679C48.2762 60.2777 47.0325 59.513 46.0663 58.3736C44.8585 56.9482 44.2521 55.1065 44.2264 53.2441C44.2264 53.0776 44.2264 52.9163 44.2315 52.7551L49.0934 52.5678L49.0728 52.9423C49.0677 53.0204 49.0677 53.1036 49.0677 53.1817C49.078 53.8944 49.2784 54.6331 49.7461 55.1794C50.26 55.7881 51.0309 56.0274 51.7967 56.0638C51.8995 56.069 52.0023 56.069 52.105 56.069C52.876 56.0586 53.6314 55.8349 54.1968 55.2886C54.5514 54.9453 54.8032 54.5083 54.9317 54.0296C55.0499 53.6083 55.0756 53.14 54.9574 52.7082C54.8649 52.3545 54.6747 52.0423 54.3715 51.8394L50.923 49.9926L50.887 49.9718L47.5002 48.0833L47.4539 48.0469C46.0149 47.1885 45.023 45.8359 44.5861 44.2127C44.2418 42.9277 44.2726 41.5543 44.6273 40.2797C44.9922 38.9531 45.7065 37.7462 46.6881 36.7941C47.5464 35.9669 48.564 35.3739 49.6844 35.0305V31.4304H54.5411V34.9681Z" stroke="black" stroke-width="2" stroke-linejoin="round"/>
<path fill-rule="evenodd" clip-rule="evenodd" d="M3.01996 28.9316H33.0793C34.1859 28.9316 35.0934 29.9621 35.0934 31.2209V36.9061C35.0934 38.1649 34.1859 39.1953 33.0793 39.1953H3.01996C1.90752 39.1953 1 38.1649 1 36.9061V31.2209C1 29.9621 1.90752 28.9316 3.01996 28.9316ZM3.01996 73.7851H33.0793C34.1859 73.7851 35.0934 74.8156 35.0934 76.0744V81.7596C35.0934 83.0184 34.1859 84.0488 33.0793 84.0488H3.01996C1.90752 84.0488 1 83.0184 1 81.7596V76.0744C1 74.8156 1.90752 73.7851 3.01996 73.7851ZM3.01996 58.8339H33.0793C34.1859 58.8339 35.0934 59.8644 35.0934 61.1232V66.8084C35.0934 68.0672 34.1859 69.0977 33.0793 69.0977H3.01996C1.90752 69.0977 1 68.0672 1 66.8084V61.1232C1 59.8644 1.90752 58.8339 3.01996 58.8339ZM3.01996 43.8828H33.0793C34.1859 43.8828 35.0934 44.9132 35.0934 46.1721V51.8572C35.0934 53.116 34.1859 54.1465 33.0793 54.1465H3.01996C1.90752 54.1465 1 53.116 1 51.8572V46.1721C1 44.9132 1.90752 43.8828 3.01996 43.8828ZM13.4593 17.7745V23.928H22.6341V17.7745H29.4668L18.0496 1L6.63247 17.7745H13.4593Z" stroke="black" stroke-width="2" stroke-linejoin="round"/>
</svg>
