<svg width="88" height="88" viewBox="0 0 88 88" fill="none" xmlns="http://www.w3.org/2000/svg">
<path d="M20.1445 20.6746V11.4818C20.1445 9.82495 21.4877 8.48181 23.1445 8.48181H73.1566M20.1445 20.6746H79.518M20.1445 20.6746V54.0722M79.518 14.8433V64.8553C79.518 66.5122 78.1749 67.8553 76.518 67.8553H34.4578M79.518 14.8433C83.0314 14.8433 85.8795 11.9951 85.8795 8.48181C85.8795 4.96848 83.0314 2.12036 79.518 2.12036C76.0047 2.12036 73.1566 4.96848 73.1566 8.48181M79.518 14.8433C76.0047 14.8433 73.1566 11.9951 73.1566 8.48181M77.3975 6.36133L79.518 8.48181M79.518 8.48181L81.6385 10.6023M79.518 8.48181L77.3975 10.6023M79.518 8.48181L81.6385 6.36133" stroke="black" stroke-width="2" stroke-linecap="round"/>
<path d="M3.18066 38.6989V82.8796C3.18066 84.5364 4.52381 85.8796 6.18066 85.8796H59.5542C61.211 85.8796 62.5542 84.5364 62.5542 82.8796V73.1567M3.18066 38.6989V29.5061C3.18066 27.8492 4.52381 26.5061 6.18066 26.5061H14.3132M3.18066 38.6989H14.3132" stroke="black" stroke-width="2" stroke-linecap="round"/>
<path d="M10.6025 77.9277L34.458 54.0723M34.458 54.0723V62.5542M34.458 54.0723H25.976" stroke="black" stroke-width="2" stroke-linecap="round" stroke-linejoin="round"/>
</svg>
