<svg width="13" height="24" viewBox="0 0 13 24" fill="none" xmlns="http://www.w3.org/2000/svg">
<path fill-rule="evenodd" clip-rule="evenodd" d="M11.14 0H1.85999C0.832736 0 0 0.868957 0 1.94087V22.0591C0 23.131 0.832736 24 1.85999 24H11.14C12.1673 24 13 23.131 13 22.0591V1.94087C13 0.868957 12.1673 0 11.14 0ZM4.99995 1.5C4.99995 1.22386 5.22381 1 5.49995 1H7.49995C7.77609 1 7.99995 1.22386 7.99995 1.5C7.99995 1.77614 7.77609 2 7.49995 2H5.49995C5.22381 2 4.99995 1.77614 4.99995 1.5ZM4.5 22C4.22386 22 4 22.2239 4 22.5C4 22.7761 4.22386 23 4.5 23H8.5C8.77614 23 9 22.7761 9 22.5C9 22.2239 8.77614 22 8.5 22H4.5Z" fill="black"/>
</svg>
