<svg id="uuid-a167c222-c5bb-4b5a-b821-1a144060bdfe" data-name="Layer 2" xmlns="http://www.w3.org/2000/svg" viewBox="0 0 34 48" aria-hidden="true">
  <path d="M6.39,29.1l.13,.21,.13,.23c7.91,13.56,21.48,21.53,24.01,17.34l3.18-5.96c.13-.27,.18-.57,.16-.86-.02-.3-.12-.58-.28-.83-.45-.86-.85-.88-3.18-2.41-1.21-.88-2.48-1.86-3.35-2.59-.35-.34-.82-.54-1.32-.56-.49-.02-.98,.14-1.36,.46l-1.29,1.28c-.46,.43-1.06,.67-1.7,.67-1.89,0-5.49-5.06-7.51-8.16-.57-.88-1.02-1.61-1.27-2.09-.25-.48-.68-1.21-1.17-2.09-1.7-3.28-4.24-8.89-3.33-10.46,.15-.27,.36-.51,.6-.7,.25-.19,.53-.32,.84-.39l1.78-.48c.46-.17,.85-.5,1.08-.92,.23-.43,.29-.93,.17-1.4-.21-1.09-.4-2.68-.59-4.18-.15-2.74,0-3.1-.49-3.91-.14-.27-.34-.5-.59-.67-.25-.17-.54-.27-.85-.3L3.36,0C-1.58-.06-1.48,15.5,6.39,29.1Z"/>
</svg>