<svg width="24" height="24" viewBox="0 0 24 24" fill="none" xmlns="http://www.w3.org/2000/svg">
<path fill-rule="evenodd" clip-rule="evenodd" d="M21 9.01594C21 13.42 16.2905 19.226 13.4502 22.411C12.6761 23.2791 11.3222 23.2806 10.5466 22.4139C7.7006 19.2337 2.99122 13.4383 3.00001 9.01594C3.00001 6.62477 3.94822 4.33153 5.63605 2.64071C7.32388 0.949892 9.61306 0 12 0C14.387 0 16.6762 0.949892 18.364 2.64071C20.0518 4.33153 21 6.62477 21 9.01594ZM16.2352 9.16467C16.2352 11.5079 14.339 13.4075 11.9999 13.4075C9.66085 13.4075 7.76465 11.5079 7.76465 9.16467C7.76465 6.82144 9.66085 4.92188 11.9999 4.92188C14.339 4.92188 16.2352 6.82144 16.2352 9.16467Z" fill="black"/>
</svg>
