<svg width="69" height="68" viewBox="0 0 69 68" fill="none" xmlns="http://www.w3.org/2000/svg">
<path d="M45.8862 32.3727L31.7124 22.2009C31.1923 21.8287 30.5017 21.7726 29.9316 22.0619C29.3569 22.3489 28.998 22.9319 28.998 23.5621V43.899C28.998 44.5359 29.3569 45.1167 29.9316 45.4037C30.1747 45.5248 30.4404 45.5853 30.7084 45.5853C31.0582 45.5853 31.4126 45.4755 31.7124 45.2579L45.8862 35.0951C46.3337 34.7699 46.5949 34.2676 46.5949 33.7339C46.5972 33.1912 46.3291 32.6912 45.8862 32.3727Z" fill="black"/>
<path d="M34.6322 0C15.7784 0 0.5 15.0835 0.5 33.6968C0.5 52.3034 15.7784 67.3824 34.6322 67.3824C53.4815 67.3824 68.7621 52.3012 68.7621 33.6968C68.7644 15.0835 53.4815 0 34.6322 0ZM34.6322 61.7603C18.9313 61.7603 6.20157 49.1997 6.20157 33.6968C6.20157 18.2007 18.9313 5.62436 34.6322 5.62436C50.3308 5.62436 63.0583 18.1984 63.0583 33.6968C63.0606 49.1997 50.3308 61.7603 34.6322 61.7603Z" fill="black"/>
</svg>
