<svg width="153" height="275" viewBox="0 0 153 275" fill="none" xmlns="http://www.w3.org/2000/svg">
<path d="M74.2916 122.769C65.7597 122.769 37.9339 120.846 37.9339 96.1063C37.9339 71.366 65.7597 69.4439 74.2916 69.4439C115.497 69.4439 115.497 88.8134 115.497 96.1063C115.497 100.606 117.285 104.922 120.467 108.104C123.648 111.286 127.964 113.073 132.464 113.073C136.964 113.073 141.28 111.286 144.461 108.104C147.643 104.922 149.431 100.606 149.431 96.1063C149.431 63.7236 128.922 42.5392 93.6824 37.0046V23.3908C93.6824 18.248 91.6395 13.3159 88.003 9.67943C84.3665 6.04295 79.4344 4 74.2916 4C69.1489 4 64.2167 6.04295 60.5803 9.67943C56.9438 13.3159 54.9008 18.248 54.9008 23.3908V37.4671C23.8188 43.8452 4 65.7825 4 96.1063C4 132.351 32.248 156.702 74.2916 156.702C88.5438 156.702 115.497 162.274 115.497 183.365C115.497 204.455 88.5438 210.027 74.2916 210.027C65.7597 210.027 37.9339 208.105 37.9339 183.365C37.9339 178.865 36.1463 174.549 32.9644 171.367C29.7825 168.185 25.4669 166.398 20.9669 166.398C16.467 166.398 12.1514 168.185 8.9695 171.367C5.78758 174.549 4 178.865 4 183.365C4 213.689 23.8188 235.626 54.9008 242.004V251.233C54.9008 256.375 56.9438 261.307 60.5803 264.944C64.2167 268.58 69.1489 270.623 74.2916 270.623C79.4344 270.623 84.3665 268.58 88.003 264.944C91.6395 261.307 93.6824 256.375 93.6824 251.233V242.027C123.669 236.072 149.431 216.198 149.431 183.365C149.431 143.584 111.629 122.769 74.2916 122.769Z" stroke="black" stroke-width="7.024" stroke-miterlimit="10"/>
</svg>
