<svg viewBox="0 0 102 48" fill="none" xmlns="http://www.w3.org/2000/svg"><g clip-path="url(#clip0_114_40)"><path d="M96.3742 18.4751C95.877 18.4751 95.3799 18.288 95.0003 17.9085L88.8152 11.7234C88.0561 10.9643 88.0561 9.74006 88.8152 8.98096C89.5743 8.22185 90.7985 8.22185 91.5576 8.98096L97.7427 15.1661C98.5018 15.9252 98.5018 17.1493 97.7427 17.9085C97.3632 18.288 96.866 18.4751 96.3689 18.4751H96.3742Z" fill="#EA698B"/><path d="M92.862 21.9873C92.3649 21.9873 91.8677 21.8002 91.4881 21.4206L88.4303 18.3628C87.6712 17.6037 87.6712 16.3796 88.4303 15.6204C89.1894 14.8613 90.4136 14.8613 91.1727 15.6204L94.2305 18.6782C94.9896 19.4374 94.9896 20.6615 94.2305 21.4206C93.851 21.8002 93.3538 21.9873 92.8567 21.9873H92.862Z" fill="#193D95"/><path d="M101.383 11.5256L90.4243 0.598731C91.1514 1.36318 91.1407 2.57133 90.3869 3.3144L89.0184 4.67224L98.6462 14.268C99.0257 14.6475 99.5175 14.8346 100.015 14.8346C100.512 14.8346 101.009 14.6422 101.389 14.2626C102.142 13.5035 102.142 12.274 101.389 11.5202L101.383 11.5256Z" fill="#FFBF46"/><path d="M87.6445 0.572002C88.3983 -0.187103 89.6278 -0.187103 90.3869 0.572002L90.419 0.604076C90.419 0.604076 90.4029 0.588039 90.3922 0.577347C89.6385 -0.181757 88.409 -0.187103 87.6499 0.566656L82.9402 5.23354C82.1811 5.9873 82.1757 7.21684 82.9295 7.97594C83.3091 8.36084 83.8062 8.54794 84.3087 8.54794C84.8112 8.54794 85.2977 8.36084 85.6772 7.98663L89.013 4.67758L87.6499 3.3144C86.8907 2.56064 86.8907 1.33111 87.6499 0.572002H87.6445Z" fill="#00CC99"/><path d="M90.4243 0.598731L90.3923 0.566656C89.6331 -0.187103 88.4036 -0.187103 87.6499 0.566656C86.8961 1.32576 86.8961 2.5553 87.6499 3.30905L89.013 4.67224L90.3816 3.3144C91.1353 2.56599 91.146 1.35784 90.419 0.598731H90.4243Z" fill="#009344"/><path d="M13.7387 15.5135V38.1477H6.19579V15.5135H0V9.12529H19.9399V15.5135H13.7441H13.7387Z" fill="black"/><path d="M17.1868 28.1029C17.1868 26.6382 17.4808 25.275 18.0742 24.0027C18.6622 22.7304 19.4855 21.6291 20.5386 20.6936C21.5917 19.7581 22.8426 19.0204 24.2913 18.4805C25.7401 17.9405 27.3278 17.6732 29.0438 17.6732C30.7598 17.6732 32.3101 17.9352 33.7588 18.4644C35.2075 18.9883 36.4637 19.7207 37.5329 20.6562C38.5967 21.5917 39.4253 22.709 40.0134 24.0027C40.6014 25.2964 40.9008 26.729 40.9008 28.2954C40.9008 29.8617 40.6014 31.289 39.9973 32.588C39.3933 33.8817 38.5647 34.999 37.5169 35.9345C36.4637 36.87 35.2021 37.5971 33.7267 38.1103C32.2513 38.6235 30.6529 38.8801 28.9369 38.8801C27.2208 38.8801 25.6759 38.6235 24.2432 38.1103C22.8052 37.5971 21.5703 36.8647 20.5279 35.9185C19.4908 34.9669 18.6729 33.8336 18.0849 32.5132C17.4968 31.1928 17.1975 29.7227 17.1975 28.1083L17.1868 28.1029ZM24.5373 28.1777C24.5373 28.846 24.6602 29.4554 24.9008 30.006C25.1467 30.5566 25.4674 31.0378 25.863 31.4494C26.2586 31.861 26.7344 32.1818 27.285 32.4116C27.8356 32.6415 28.4183 32.7591 29.0384 32.7591C29.6585 32.7591 30.2359 32.6415 30.7918 32.4116C31.3425 32.1818 31.8182 31.861 32.2138 31.4494C32.6094 31.0378 32.9302 30.5566 33.1761 30.006C33.422 29.4554 33.5396 28.8567 33.5396 28.2152C33.5396 27.5737 33.4166 27.0177 33.1761 26.4617C32.9302 25.9111 32.6094 25.43 32.2138 25.0184C31.8182 24.6067 31.3425 24.286 30.7918 24.0561C30.2412 23.8263 29.6585 23.7087 29.0384 23.7087C28.4183 23.7087 27.841 23.8263 27.285 24.0561C26.7344 24.286 26.2586 24.6067 25.863 25.0184C25.4674 25.43 25.1467 25.9058 24.9008 26.4404C24.6549 26.9803 24.5373 27.5576 24.5373 28.1724V28.1777Z" fill="black"/><path d="M50.4163 48H43.4507V18.4003H50.4163V20.592C51.9024 18.721 53.9285 17.7802 56.4998 17.7802C57.9111 17.7802 59.2262 18.0581 60.445 18.6088C61.6639 19.1594 62.7224 19.9131 63.6204 20.8593C64.5185 21.8109 65.2188 22.9228 65.716 24.2058C66.2185 25.4888 66.4644 26.8627 66.4644 28.3221C66.4644 29.7815 66.2132 31.1447 65.716 32.4009C65.2135 33.6572 64.5239 34.7638 63.6365 35.71C62.7491 36.6615 61.7066 37.4046 60.4985 37.9445C59.2903 38.4845 57.9806 38.7517 56.5747 38.7517C54.1103 38.7517 52.0575 37.9071 50.4163 36.2125V47.9893V48ZM59.1941 28.3328C59.1941 27.718 59.0819 27.1353 58.868 26.5794C58.6488 26.0287 58.3334 25.5476 57.9272 25.136C57.5155 24.7244 57.0344 24.3983 56.4838 24.1524C55.9332 23.9064 55.3344 23.7888 54.6929 23.7888C54.0515 23.7888 53.5008 23.9064 52.9609 24.1363C52.421 24.3662 51.9559 24.6869 51.555 25.0986C51.154 25.5102 50.8386 25.9913 50.5927 26.5419C50.3468 27.0925 50.2292 27.6752 50.2292 28.2954C50.2292 28.9155 50.3468 29.4875 50.5767 30.0274C50.8065 30.5673 51.1273 31.0324 51.5389 31.4333C51.9506 31.8343 52.4317 32.1497 52.9823 32.3956C53.5329 32.6415 54.1156 32.7591 54.7357 32.7591C55.3558 32.7591 55.9278 32.6415 56.4678 32.4116C57.0077 32.1818 57.4728 31.861 57.8737 31.4494C58.2693 31.0378 58.59 30.562 58.836 30.0274C59.0819 29.4875 59.1995 28.9262 59.1995 28.3328H59.1941Z" fill="black"/><path d="M81.6519 23.4841C80.3689 22.8159 79.1126 22.4845 77.8777 22.4845C77.2362 22.4845 76.7177 22.6128 76.3167 22.8694C75.9211 23.126 75.718 23.4734 75.718 23.9064C75.718 24.1363 75.7501 24.3234 75.8142 24.4624C75.8784 24.6014 76.0174 24.7404 76.2366 24.8687C76.4557 24.997 76.7765 25.1146 77.1988 25.2162C77.6211 25.3177 78.1824 25.446 78.872 25.6011C80.7965 25.986 82.2346 26.6702 83.1808 27.6592C84.1323 28.6482 84.6027 29.9098 84.6027 31.4494C84.6027 32.6041 84.3729 33.6412 83.9078 34.566C83.4481 35.4908 82.8066 36.266 81.9833 36.8968C81.16 37.5276 80.1764 38.014 79.0217 38.3615C77.867 38.709 76.5947 38.8801 75.2102 38.8801C72.5426 38.8801 69.9125 38.121 67.3197 36.6081L69.859 31.6793C71.8102 33.0157 73.6545 33.6786 75.4026 33.6786C76.0441 33.6786 76.568 33.5396 76.9796 33.2563C77.3912 32.9729 77.5944 32.6148 77.5944 32.1764C77.5944 31.9198 77.5623 31.706 77.4982 31.5403C77.434 31.3745 77.3004 31.2195 77.0919 31.0805C76.8887 30.9415 76.584 30.8132 76.1884 30.6956C75.7929 30.578 75.269 30.4604 74.6275 30.3321C72.4731 29.8938 70.9656 29.2469 70.1049 28.3862C69.2442 27.5256 68.8166 26.3388 68.8166 24.8259C68.8166 23.7247 69.0197 22.7304 69.4313 21.843C69.843 20.9556 70.431 20.2072 71.2008 19.5924C71.9706 18.9776 72.9008 18.5018 73.9913 18.1704C75.0819 17.839 76.2954 17.6679 77.6265 17.6679C79.8076 17.6679 81.9245 18.0902 83.9773 18.9402L81.6305 23.4841H81.6519Z" fill="black"/></g><defs><clipPath id="clip0_114_40"><rect width="101.955" height="48" fill="white"/></clipPath></defs></svg>