<svg xmlns="http://www.w3.org/2000/svg" viewBox="0 0 64 64" aria-hidden="true">
  <path d="M64,18a26.86,26.86,0,0,1-7.56,2.12,13.36,13.36,0,0,0,5.78-7.29,25.78,25.78,0,0,1-8.35,3.2A13.18,13.18,0,0,0,31.46,28.12a37,37,0,0,1-15-4A37.5,37.5,0,0,1,4.39,14.4,13.15,13.15,0,0,0,8.45,31.94,12.94,12.94,0,0,1,2.5,30.28v.17A13.12,13.12,0,0,0,13.09,43.38a12.73,12.73,0,0,1-3.47.46,13.79,13.79,0,0,1-2.48-.23,13.14,13.14,0,0,0,12.31,9.13A26.3,26.3,0,0,1,3.14,58.35c-1.05,0-2.1-.06-3.14-.16a37.27,37.27,0,0,0,20.15,5.88c24.17,0,37.39-20,37.39-37.39V25A26.72,26.72,0,0,0,64,18Z"/>
</svg>
