<svg width="24" height="24" viewBox="0 0 24 24" fill="none" xmlns="http://www.w3.org/2000/svg">
<path d="M12 0C9.62663 0 7.30655 0.703791 5.33316 2.02237C3.35977 3.34094 1.8217 5.21508 0.913451 7.40779C0.0051992 9.60051 -0.232441 12.0133 0.230582 14.3411C0.693605 16.6688 1.83649 18.807 3.51472 20.4853C5.19295 22.1635 7.33115 23.3064 9.65892 23.7694C11.9867 24.2324 14.3995 23.9948 16.5922 23.0865C18.7849 22.1783 20.6591 20.6402 21.9776 18.6668C23.2962 16.6934 24 14.3734 24 12C24 8.8174 22.7357 5.76516 20.4853 3.51472C18.2348 1.26428 15.1826 0 12 0V0ZM18.0127 8.91646C18.0127 9.04903 18.0218 9.18341 18.0218 9.31779C18.0218 13.4165 14.9001 18.1435 9.19431 18.1435C7.50868 18.1454 5.85814 17.6619 4.44008 16.7506C6.08066 16.9452 7.73164 16.483 9.03269 15.4649C8.38404 15.4546 7.75491 15.2413 7.23375 14.855C6.71258 14.4687 6.32557 13.9288 6.12712 13.3111C6.31981 13.3484 6.51561 13.3673 6.71187 13.3674C6.98788 13.3674 7.26267 13.3307 7.52906 13.2585C6.82673 13.1168 6.19507 12.7364 5.74126 12.182C5.28745 11.6276 5.03945 10.9332 5.03935 10.2167V10.1768C5.47028 10.4163 5.95215 10.5495 6.44492 10.5654C5.78789 10.1267 5.32291 9.45391 5.14475 8.68423C4.96658 7.91456 5.08866 7.10591 5.48608 6.42312C6.26452 7.38166 7.23596 8.16564 8.33726 8.72411C9.43856 9.28258 10.6451 9.60304 11.8783 9.66465C11.7243 8.99972 11.7936 8.30256 12.0756 7.68099C12.3575 7.05942 12.8364 6.54805 13.4382 6.22598C14.04 5.9039 14.7311 5.78906 15.4047 5.89921C16.0783 6.00936 16.6968 6.33837 17.1646 6.83535C17.8594 6.69873 18.5258 6.44447 19.135 6.08353C18.904 6.80129 18.42 7.41057 17.773 7.79782C18.3878 7.72454 18.9883 7.55989 19.5545 7.30932C19.1399 7.93218 18.6178 8.47636 18.0127 8.91646V8.91646Z" fill="black"/>
</svg>
