<svg id="Layer_1" data-name="Layer 1" xmlns="http://www.w3.org/2000/svg" viewBox="0 0 166 273">
  <path d="M51.5,57h0A51.5,51.5,0,0,1,103,108.5h0A51.5,51.5,0,0,1,51.5,160h0A51.5,51.5,0,0,1,0,108.5H0A51.5,51.5,0,0,1,51.5,57Z" style="fill: #23cca2"/>
  <path d="M90.5,170h0A51.5,51.5,0,0,1,142,221.5h0A51.5,51.5,0,0,1,90.5,273h0A51.5,51.5,0,0,1,39,221.5h0A51.5,51.5,0,0,1,90.5,170Z" style="fill: #45bce1"/>
  <path d="M114.5,0h0A51.5,51.5,0,0,1,166,51.5h0A51.5,51.5,0,0,1,114.5,103h0A51.5,51.5,0,0,1,63,51.5h0A51.5,51.5,0,0,1,114.5,0Z" style="fill: #ffe001"/>
</svg>
