<svg id="ac08c6ea-2664-4fd5-9e44-19f7be9473d3" data-name="Layer 1" xmlns="http://www.w3.org/2000/svg" xmlns:xlink="http://www.w3.org/1999/xlink" viewBox="0 0 166 273">
  <defs>
    <linearGradient id="bd0cd877-de8a-4353-b05e-4d396f44fee7" x1="51.5" y1="217" x2="51.5" y2="114" gradientTransform="matrix(1, 0, 0, -1, 0, 274)" gradientUnits="userSpaceOnUse">
      <stop offset="0" stop-color="#23cca2"/>
      <stop offset="1" stop-color="#329279"/>
    </linearGradient>
    <linearGradient id="bc045ac1-7e0a-4f14-b920-6f7e44bdb494" x1="90.5" y1="104" x2="90.5" y2="1" gradientTransform="matrix(1, 0, 0, -1, 0, 274)" gradientUnits="userSpaceOnUse">
      <stop offset="0" stop-color="#45bce1"/>
      <stop offset="1" stop-color="#3797b4"/>
    </linearGradient>
    <linearGradient id="a351ce65-0644-4748-bfc5-44f81ef14b86" x1="114.5" y1="274" x2="114.5" y2="171" gradientTransform="matrix(1, 0, 0, -1, 0, 274)" gradientUnits="userSpaceOnUse">
      <stop offset="0" stop-color="#ffe001"/>
      <stop offset="1" stop-color="#c3ae07"/>
    </linearGradient>
  </defs>
  <path d="M51.5,57h0A51.5,51.5,0,0,1,103,108.5h0A51.5,51.5,0,0,1,51.5,160h0A51.5,51.5,0,0,1,0,108.5H0A51.5,51.5,0,0,1,51.5,57Z" style="fill: url(#bd0cd877-de8a-4353-b05e-4d396f44fee7)"/>
  <path d="M90.5,170h0A51.5,51.5,0,0,1,142,221.5h0A51.5,51.5,0,0,1,90.5,273h0A51.5,51.5,0,0,1,39,221.5h0A51.5,51.5,0,0,1,90.5,170Z" style="fill: url(#bc045ac1-7e0a-4f14-b920-6f7e44bdb494)"/>
  <path d="M114.5,0h0A51.5,51.5,0,0,1,166,51.5h0A51.5,51.5,0,0,1,114.5,103h0A51.5,51.5,0,0,1,63,51.5h0A51.5,51.5,0,0,1,114.5,0Z" style="fill: url(#a351ce65-0644-4748-bfc5-44f81ef14b86)"/>
</svg>
